<svg width="32" height="32" viewBox="0 0 32 32" fill="none" xmlns="http://www.w3.org/2000/svg">
<path d="M15.986 2.6665C8.62602 2.6665 2.66602 8.63984 2.66602 15.9998C2.66602 23.3598 8.62602 29.3332 15.986 29.3332C23.3594 29.3332 29.3327 23.3598 29.3327 15.9998C29.3327 8.63984 23.3594 2.6665 15.986 2.6665ZM15.9993 26.6665C10.106 26.6665 5.33268 21.8932 5.33268 15.9998C5.33268 10.1065 10.106 5.33317 15.9993 5.33317C21.8927 5.33317 26.666 10.1065 26.666 15.9998C26.666 21.8932 21.8927 26.6665 15.9993 26.6665Z" fill="#FFC700"/>
<path d="M16.666 9.3335H14.666V17.3335L21.666 21.5335L22.666 19.8935L16.666 16.3335V9.3335Z" fill="#FFC700"/>
</svg>
