<svg width="263" height="55" viewBox="0 0 263 55" fill="none" xmlns="http://www.w3.org/2000/svg">
<path d="M16.1875 21.8594V20.7969H24.5625V21.8594H21V32.5H19.75V21.8594H16.1875ZM24.9 28.2344C24.9 26.9219 25.2542 25.8594 25.9625 25.0469C26.6708 24.224 27.5875 23.8125 28.7125 23.8125C29.8583 23.8125 30.7594 24.2135 31.4156 25.0156C32.0719 25.8073 32.4 26.8229 32.4 28.0625C32.4 28.2083 32.3896 28.4167 32.3687 28.6875H26.1187C26.1187 29.5312 26.3531 30.2552 26.8219 30.8594C27.2906 31.4635 27.9417 31.7656 28.775 31.7656C29.3167 31.7656 29.7958 31.6406 30.2125 31.3906C30.6292 31.1302 30.9521 30.7865 31.1812 30.3594L32.2125 30.6719C31.9521 31.2865 31.5302 31.7917 30.9469 32.1875C30.3635 32.5833 29.6396 32.7812 28.775 32.7812C27.6083 32.7812 26.6708 32.3646 25.9625 31.5312C25.2542 30.6979 24.9 29.599 24.9 28.2344ZM26.15 27.7656H31.1812C31.1812 26.9427 30.9573 26.25 30.5094 25.6875C30.0615 25.1146 29.4625 24.8281 28.7125 24.8281C27.9521 24.8281 27.3375 25.1198 26.8687 25.7031C26.4104 26.2865 26.1708 26.974 26.15 27.7656ZM34.6437 32.5V20.3594H35.8312V32.5H34.6437ZM38.1063 28.2344C38.1063 26.9219 38.4604 25.8594 39.1688 25.0469C39.8771 24.224 40.7938 23.8125 41.9188 23.8125C43.0646 23.8125 43.9656 24.2135 44.6219 25.0156C45.2781 25.8073 45.6063 26.8229 45.6063 28.0625C45.6063 28.2083 45.5958 28.4167 45.575 28.6875H39.325C39.325 29.5312 39.5594 30.2552 40.0281 30.8594C40.4969 31.4635 41.1479 31.7656 41.9813 31.7656C42.5229 31.7656 43.0021 31.6406 43.4188 31.3906C43.8354 31.1302 44.1583 30.7865 44.3875 30.3594L45.4188 30.6719C45.1583 31.2865 44.7365 31.7917 44.1531 32.1875C43.5698 32.5833 42.8458 32.7812 41.9813 32.7812C40.8146 32.7812 39.8771 32.3646 39.1688 31.5312C38.4604 30.6979 38.1063 29.599 38.1063 28.2344ZM39.3563 27.7656H44.3875C44.3875 26.9427 44.1635 26.25 43.7156 25.6875C43.2677 25.1146 42.6688 24.8281 41.9188 24.8281C41.1583 24.8281 40.5438 25.1198 40.075 25.7031C39.6167 26.2865 39.3771 26.974 39.3563 27.7656ZM40.4969 22.5312L42.2625 19.7969H43.8406L41.5594 22.5312H40.4969ZM46.7875 25.1094V24.0938H48.225V22.7969C48.225 21.974 48.4333 21.3646 48.85 20.9688C49.2667 20.5625 49.8396 20.3594 50.5688 20.3594H51.6625V21.3594H50.725C49.8708 21.3594 49.4438 21.8802 49.4438 22.9219V24.0938H51.4438V25.1094H49.4438V32.5H48.225V25.1094H46.7875ZM53.8125 28.2969C53.8125 29.3594 54.0573 30.2031 54.5469 30.8281C55.0365 31.4531 55.6458 31.7656 56.375 31.7656C57.0938 31.7656 57.6979 31.4531 58.1875 30.8281C58.6875 30.2031 58.9375 29.3594 58.9375 28.2969C58.9375 27.2135 58.6875 26.3646 58.1875 25.75C57.6875 25.1354 57.0833 24.8281 56.375 24.8281C55.6562 24.8281 55.0469 25.1354 54.5469 25.75C54.0573 26.3646 53.8125 27.2135 53.8125 28.2969ZM52.5938 28.2969C52.5938 27.0156 52.9219 25.9479 53.5781 25.0938C54.2448 24.2396 55.1771 23.8125 56.375 23.8125C57.5625 23.8125 58.4896 24.2396 59.1562 25.0938C59.8229 25.9479 60.1562 27.0156 60.1562 28.2969C60.1562 28.8385 60.0833 29.3646 59.9375 29.875C59.8021 30.3854 59.5885 30.8646 59.2969 31.3125C59.0156 31.75 58.6198 32.1042 58.1094 32.375C57.6094 32.6458 57.0312 32.7812 56.375 32.7812C55.7292 32.7812 55.151 32.651 54.6406 32.3906C54.1406 32.1198 53.7448 31.7656 53.4531 31.3281C53.1719 30.8802 52.9583 30.401 52.8125 29.8906C52.6667 29.3802 52.5938 28.849 52.5938 28.2969ZM62.2438 32.5V24.0938H63.4313V25.5312H63.4469C63.5719 25.1146 63.8792 24.724 64.3688 24.3594C64.8583 23.9948 65.4417 23.8125 66.1188 23.8125C66.9 23.8125 67.5406 24.0573 68.0406 24.5469C68.551 25.0365 68.8063 25.875 68.8063 27.0625V32.5H67.5875V27.2656C67.5875 25.6406 67.0042 24.8281 65.8375 24.8281C65.1917 24.8281 64.6344 25.0885 64.1656 25.6094C63.6969 26.1302 63.4625 26.7552 63.4625 27.4844V32.5H62.2438ZM72.0187 28.2969C72.0187 29.3594 72.2635 30.2031 72.7531 30.8281C73.2427 31.4531 73.8521 31.7656 74.5812 31.7656C75.3 31.7656 75.9042 31.4531 76.3937 30.8281C76.8937 30.2031 77.1437 29.3594 77.1437 28.2969C77.1437 27.2135 76.8937 26.3646 76.3937 25.75C75.8937 25.1354 75.2896 24.8281 74.5812 24.8281C73.8625 24.8281 73.2531 25.1354 72.7531 25.75C72.2635 26.3646 72.0187 27.2135 72.0187 28.2969ZM70.8 28.2969C70.8 27.0156 71.1281 25.9479 71.7844 25.0938C72.451 24.2396 73.3833 23.8125 74.5812 23.8125C75.7687 23.8125 76.6958 24.2396 77.3625 25.0938C78.0292 25.9479 78.3625 27.0156 78.3625 28.2969C78.3625 28.8385 78.2896 29.3646 78.1437 29.875C78.0083 30.3854 77.7948 30.8646 77.5031 31.3125C77.2219 31.75 76.826 32.1042 76.3156 32.375C75.8156 32.6458 75.2375 32.7812 74.5812 32.7812C73.9354 32.7812 73.3573 32.651 72.8469 32.3906C72.3469 32.1198 71.951 31.7656 71.6594 31.3281C71.3781 30.8802 71.1646 30.401 71.0187 29.8906C70.8729 29.3802 70.8 28.849 70.8 28.2969Z" fill="black" fill-opacity="0.6"/>
</svg>
