<svg width="220" height="136" viewBox="0 0 220 136" fill="none" xmlns="http://www.w3.org/2000/svg">
<path d="M18.875 66.875H22.0312C22.8125 66.875 23.4115 66.6667 23.8281 66.25C24.2552 65.8333 24.4688 65.2812 24.4688 64.5938C24.4688 63.9271 24.2448 63.3906 23.7969 62.9844C23.3594 62.5677 22.7292 62.3594 21.9062 62.3594H18.875V66.875ZM17.625 73V61.2969H22.1875C23.3333 61.2969 24.2135 61.6094 24.8281 62.2344C25.4427 62.849 25.75 63.6094 25.75 64.5156C25.75 65.3385 25.5417 66.0052 25.125 66.5156C24.7083 67.026 24.25 67.349 23.75 67.4844C24.1875 67.7135 24.5052 67.9948 24.7031 68.3281C24.901 68.6615 25.0625 69.125 25.1875 69.7188C25.3229 70.3021 25.4167 70.7031 25.4688 70.9219C25.5312 71.1302 25.6354 71.4323 25.7812 71.8281C25.9375 72.224 26.125 72.6146 26.3438 73H24.9375C24.7604 72.6667 24.599 72.3125 24.4531 71.9375C24.3177 71.5521 24.2188 71.2396 24.1562 71C24.0938 70.75 24 70.3542 23.875 69.8125C23.7396 69.2292 23.5312 68.7708 23.25 68.4375C22.9792 68.1042 22.5417 67.9375 21.9375 67.9375H18.875V73H17.625ZM27.4 68.7344C27.4 67.4219 27.7542 66.3594 28.4625 65.5469C29.1708 64.724 30.0875 64.3125 31.2125 64.3125C32.3583 64.3125 33.2594 64.7135 33.9156 65.5156C34.5719 66.3073 34.9 67.3229 34.9 68.5625C34.9 68.7083 34.8896 68.9167 34.8687 69.1875H28.6187C28.6187 70.0312 28.8531 70.7552 29.3219 71.3594C29.7906 71.9635 30.4417 72.2656 31.275 72.2656C31.8167 72.2656 32.2958 72.1406 32.7125 71.8906C33.1292 71.6302 33.4521 71.2865 33.6812 70.8594L34.7125 71.1719C34.4521 71.7865 34.0302 72.2917 33.4469 72.6875C32.8635 73.0833 32.1396 73.2812 31.275 73.2812C30.1083 73.2812 29.1708 72.8646 28.4625 72.0312C27.7542 71.1979 27.4 70.099 27.4 68.7344ZM28.65 68.2656H33.6812C33.6812 67.4427 33.4573 66.75 33.0094 66.1875C32.5615 65.6146 31.9625 65.3281 31.2125 65.3281C30.4521 65.3281 29.8375 65.6198 29.3687 66.2031C28.9104 66.7865 28.6708 67.474 28.65 68.2656ZM36.0812 65.6094V64.5938H37.5187V63.2969C37.5187 62.474 37.7271 61.8646 38.1437 61.4688C38.5604 61.0625 39.1333 60.8594 39.8625 60.8594H40.9562V61.8594H40.0187C39.1646 61.8594 38.7375 62.3802 38.7375 63.4219V64.5938H40.7375V65.6094H38.7375V73H37.5187V65.6094H36.0812ZM41.8875 68.7344C41.8875 67.4219 42.2417 66.3594 42.95 65.5469C43.6583 64.724 44.575 64.3125 45.7 64.3125C46.8458 64.3125 47.7469 64.7135 48.4031 65.5156C49.0594 66.3073 49.3875 67.3229 49.3875 68.5625C49.3875 68.7083 49.3771 68.9167 49.3563 69.1875H43.1063C43.1063 70.0312 43.3406 70.7552 43.8094 71.3594C44.2781 71.9635 44.9292 72.2656 45.7625 72.2656C46.3042 72.2656 46.7833 72.1406 47.2 71.8906C47.6167 71.6302 47.9396 71.2865 48.1688 70.8594L49.2 71.1719C48.9396 71.7865 48.5177 72.2917 47.9344 72.6875C47.351 73.0833 46.6271 73.2812 45.7625 73.2812C44.5958 73.2812 43.6583 72.8646 42.95 72.0312C42.2417 71.1979 41.8875 70.099 41.8875 68.7344ZM43.1375 68.2656H48.1688C48.1688 67.4427 47.9448 66.75 47.4969 66.1875C47.049 65.6146 46.45 65.3281 45.7 65.3281C44.9396 65.3281 44.325 65.6198 43.8563 66.2031C43.3979 66.7865 43.1583 67.474 43.1375 68.2656ZM51.4437 73V64.5938H52.6V65.8125C52.7667 65.4375 53.0427 65.0938 53.4281 64.7812C53.8135 64.4688 54.3083 64.3125 54.9125 64.3125C55.3604 64.3125 55.7562 64.3854 56.1 64.5312V65.625C55.725 65.4792 55.3292 65.4062 54.9125 65.4062C54.2042 65.4062 53.6521 65.6719 53.2562 66.2031C52.8604 66.7344 52.6625 67.4375 52.6625 68.3125V73H51.4437ZM56.8906 68.7344C56.8906 67.4219 57.2448 66.3594 57.9531 65.5469C58.6615 64.724 59.5781 64.3125 60.7031 64.3125C61.849 64.3125 62.75 64.7135 63.4062 65.5156C64.0625 66.3073 64.3906 67.3229 64.3906 68.5625C64.3906 68.7083 64.3802 68.9167 64.3594 69.1875H58.1094C58.1094 70.0312 58.3438 70.7552 58.8125 71.3594C59.2812 71.9635 59.9323 72.2656 60.7656 72.2656C61.3073 72.2656 61.7865 72.1406 62.2031 71.8906C62.6198 71.6302 62.9427 71.2865 63.1719 70.8594L64.2031 71.1719C63.9427 71.7865 63.5208 72.2917 62.9375 72.6875C62.3542 73.0833 61.6302 73.2812 60.7656 73.2812C59.599 73.2812 58.6615 72.8646 57.9531 72.0312C57.2448 71.1979 56.8906 70.099 56.8906 68.7344ZM58.1406 68.2656H63.1719C63.1719 67.4427 62.9479 66.75 62.5 66.1875C62.0521 65.6146 61.4531 65.3281 60.7031 65.3281C59.9427 65.3281 59.3281 65.6198 58.8594 66.2031C58.401 66.7865 58.1615 67.474 58.1406 68.2656ZM66.4469 73V64.5938H67.6344V66.0312H67.65C67.775 65.6146 68.0823 65.224 68.5719 64.8594C69.0615 64.4948 69.6448 64.3125 70.3219 64.3125C71.1031 64.3125 71.7438 64.5573 72.2438 65.0469C72.7542 65.5365 73.0094 66.375 73.0094 67.5625V73H71.7906V67.7656C71.7906 66.1406 71.2073 65.3281 70.0406 65.3281C69.3948 65.3281 68.8375 65.5885 68.3688 66.1094C67.9 66.6302 67.6656 67.2552 67.6656 67.9844V73H66.4469ZM75.0031 68.7969C75.0031 67.4635 75.3417 66.3854 76.0187 65.5625C76.6958 64.7292 77.6073 64.3125 78.7531 64.3125C79.5031 64.3125 80.1437 64.5312 80.675 64.9688C81.2167 65.3958 81.576 65.9062 81.7531 66.5L80.7219 66.7969C80.5656 66.3802 80.3104 66.0312 79.9562 65.75C79.6125 65.4688 79.2115 65.3281 78.7531 65.3281C77.9823 65.3281 77.3677 65.6562 76.9094 66.3125C76.451 66.9688 76.2219 67.7969 76.2219 68.7969C76.2219 69.8594 76.4615 70.7031 76.9406 71.3281C77.4198 71.9531 78.024 72.2656 78.7531 72.2656C79.2427 72.2656 79.6854 72.1094 80.0812 71.7969C80.4875 71.474 80.774 71.1042 80.9406 70.6875L81.9719 71.0156C81.7531 71.6406 81.3521 72.1771 80.7687 72.625C80.1958 73.0625 79.524 73.2812 78.7531 73.2812C77.6385 73.2812 76.7323 72.875 76.0344 72.0625C75.3469 71.25 75.0031 70.1615 75.0031 68.7969ZM83.8719 62.7031V61.125H85.4031V62.7031H83.8719ZM84.0594 73V64.5938H85.2469V73H84.0594ZM88.8187 70.8438C88.8187 71.2396 88.9854 71.5781 89.3187 71.8594C89.6521 72.1302 90.1104 72.2656 90.6937 72.2656C91.4333 72.2656 92.0635 72.026 92.5844 71.5469C93.1156 71.0677 93.3812 70.4583 93.3812 69.7188V68.5469C92.9229 68.6615 92.1937 68.7969 91.1937 68.9531C90.3812 69.099 89.7823 69.3229 89.3969 69.625C89.0115 69.9271 88.8187 70.3333 88.8187 70.8438ZM87.6 70.9375C87.6 69.375 88.8083 68.4062 91.225 68.0312C92.3083 67.8542 93.0271 67.7083 93.3812 67.5938V67.1094C93.3812 66.5885 93.1937 66.1562 92.8187 65.8125C92.4437 65.4688 91.9125 65.2969 91.225 65.2969C90.725 65.2969 90.2406 65.4167 89.7719 65.6562C89.3135 65.8854 88.9229 66.1979 88.6 66.5938L87.8187 65.9375C88.2354 65.4583 88.7354 65.0677 89.3187 64.7656C89.9125 64.4635 90.5375 64.3125 91.1937 64.3125C93.4437 64.3125 94.5687 65.4115 94.5687 67.6094V73H93.4125V71.625C93.2458 72.0729 92.9021 72.4635 92.3812 72.7969C91.8604 73.1198 91.2458 73.2812 90.5375 73.2812C89.6104 73.2812 88.8865 73.0625 88.3656 72.625C87.8552 72.1875 87.6 71.625 87.6 70.9375ZM96.4531 71.3438L97.3594 70.8125C97.974 71.7812 98.8073 72.2656 99.8594 72.2656C100.495 72.2656 101 72.151 101.375 71.9219C101.76 71.6927 101.953 71.3594 101.953 70.9219C101.953 70.7344 101.906 70.5677 101.812 70.4219C101.719 70.2656 101.615 70.1406 101.5 70.0469C101.396 69.9427 101.203 69.8333 100.922 69.7188C100.641 69.5938 100.406 69.5052 100.219 69.4531C100.042 69.3906 99.7448 69.2917 99.3281 69.1562C98.9635 69.0417 98.651 68.9271 98.3906 68.8125C98.1302 68.6979 97.8594 68.5469 97.5781 68.3594C97.2969 68.1615 97.0781 67.9219 96.9219 67.6406C96.776 67.3594 96.7031 67.0365 96.7031 66.6719C96.7031 65.974 96.9844 65.4062 97.5469 64.9688C98.1094 64.5312 98.8802 64.3125 99.8594 64.3125C100.547 64.3125 101.177 64.4948 101.75 64.8594C102.323 65.224 102.734 65.651 102.984 66.1406L102.172 66.6719C101.953 66.3073 101.635 65.9948 101.219 65.7344C100.812 65.4635 100.359 65.3281 99.8594 65.3281C99.224 65.3281 98.7396 65.4531 98.4062 65.7031C98.0833 65.9427 97.9219 66.2708 97.9219 66.6875C97.9219 66.9271 97.9844 67.1458 98.1094 67.3438C98.2344 67.5312 98.4219 67.6979 98.6719 67.8438C98.9323 67.9792 99.1667 68.0885 99.375 68.1719C99.5938 68.2448 99.8802 68.3385 100.234 68.4531C100.536 68.5469 100.802 68.6354 101.031 68.7188C101.271 68.8021 101.531 68.9167 101.812 69.0625C102.094 69.2083 102.328 69.3646 102.516 69.5312C102.703 69.6875 102.859 69.8906 102.984 70.1406C103.109 70.3802 103.172 70.6406 103.172 70.9219C103.172 71.5885 102.875 72.151 102.281 72.6094C101.698 73.0573 100.891 73.2812 99.8594 73.2812C99.1094 73.2812 98.4427 73.1146 97.8594 72.7812C97.276 72.4375 96.8073 71.9583 96.4531 71.3438Z" fill="black" fill-opacity="0.6"/>
</svg>
