<svg width="220" height="59" viewBox="0 0 220 59" fill="none" xmlns="http://www.w3.org/2000/svg">
<path d="M17.625 34.5V22.7969H22.0312C23.1667 22.7969 24.0625 23.1094 24.7188 23.7344C25.3854 24.3594 25.7188 25.1875 25.7188 26.2188C25.7188 27.2812 25.3802 28.1198 24.7031 28.7344C24.026 29.349 23.1354 29.6562 22.0312 29.6562H18.875V34.5H17.625ZM18.875 28.6094H21.8438C22.6667 28.6094 23.3021 28.4115 23.75 28.0156C24.2083 27.6094 24.4375 27.0104 24.4375 26.2188C24.4375 25.4479 24.2083 24.8646 23.75 24.4688C23.3021 24.0625 22.6562 23.8594 21.8125 23.8594H18.875V28.6094ZM27.7437 34.5V26.0938H28.9V27.3125C29.0667 26.9375 29.3427 26.5938 29.7281 26.2812C30.1135 25.9688 30.6083 25.8125 31.2125 25.8125C31.6604 25.8125 32.0562 25.8854 32.4 26.0312V27.125C32.025 26.9792 31.6292 26.9062 31.2125 26.9062C30.5042 26.9062 29.9521 27.1719 29.5562 27.7031C29.1604 28.2344 28.9625 28.9375 28.9625 29.8125V34.5H27.7437ZM34.4094 30.2969C34.4094 31.3594 34.6542 32.2031 35.1437 32.8281C35.6333 33.4531 36.2427 33.7656 36.9719 33.7656C37.6906 33.7656 38.2948 33.4531 38.7844 32.8281C39.2844 32.2031 39.5344 31.3594 39.5344 30.2969C39.5344 29.2135 39.2844 28.3646 38.7844 27.75C38.2844 27.1354 37.6802 26.8281 36.9719 26.8281C36.2531 26.8281 35.6437 27.1354 35.1437 27.75C34.6542 28.3646 34.4094 29.2135 34.4094 30.2969ZM33.1906 30.2969C33.1906 29.0156 33.5187 27.9479 34.175 27.0938C34.8417 26.2396 35.774 25.8125 36.9719 25.8125C38.1594 25.8125 39.0865 26.2396 39.7531 27.0938C40.4198 27.9479 40.7531 29.0156 40.7531 30.2969C40.7531 30.8385 40.6802 31.3646 40.5344 31.875C40.399 32.3854 40.1854 32.8646 39.8937 33.3125C39.6125 33.75 39.2167 34.1042 38.7062 34.375C38.2062 34.6458 37.6281 34.7812 36.9719 34.7812C36.326 34.7812 35.7479 34.651 35.2375 34.3906C34.7375 34.1198 34.3417 33.7656 34.05 33.3281C33.7687 32.8802 33.5552 32.401 33.4094 31.8906C33.2635 31.3802 33.1906 30.849 33.1906 30.2969ZM41.7156 26.0938H43.0594L44.8719 31.3594C44.9552 31.6198 45.0698 31.9844 45.2156 32.4531C45.3615 32.9219 45.4656 33.2552 45.5281 33.4531H45.5594C45.6323 33.2135 45.7469 32.8646 45.9031 32.4062C46.0594 31.9479 46.174 31.599 46.2469 31.3594L48.0281 26.0938H49.3719L46.2781 34.5H44.8094L41.7156 26.0938ZM51.0219 24.2031V22.625H52.5531V24.2031H51.0219ZM51.2094 34.5V26.0938H52.3969V34.5H51.2094ZM55.3438 34.5V26.0938H56.5312V27.5312H56.5469C56.6719 27.1146 56.9792 26.724 57.4688 26.3594C57.9583 25.9948 58.5417 25.8125 59.2188 25.8125C60 25.8125 60.6406 26.0573 61.1406 26.5469C61.651 27.0365 61.9062 27.875 61.9062 29.0625V34.5H60.6875V29.2656C60.6875 27.6406 60.1042 26.8281 58.9375 26.8281C58.2917 26.8281 57.7344 27.0885 57.2656 27.6094C56.7969 28.1302 56.5625 28.7552 56.5625 29.4844V34.5H55.3438ZM63.9 30.2969C63.9 28.9635 64.2385 27.8854 64.9156 27.0625C65.5927 26.2292 66.5042 25.8125 67.65 25.8125C68.4 25.8125 69.0406 26.0312 69.5719 26.4688C70.1135 26.8958 70.4729 27.4062 70.65 28L69.6188 28.2969C69.4625 27.8802 69.2073 27.5312 68.8531 27.25C68.5094 26.9688 68.1083 26.8281 67.65 26.8281C66.8792 26.8281 66.2646 27.1562 65.8063 27.8125C65.3479 28.4688 65.1188 29.2969 65.1188 30.2969C65.1188 31.3594 65.3583 32.2031 65.8375 32.8281C66.3167 33.4531 66.9208 33.7656 67.65 33.7656C68.1396 33.7656 68.5823 33.6094 68.9781 33.2969C69.3844 32.974 69.6708 32.6042 69.8375 32.1875L70.8688 32.5156C70.65 33.1406 70.249 33.6771 69.6656 34.125C69.0927 34.5625 68.4208 34.7812 67.65 34.7812C66.5354 34.7812 65.6292 34.375 64.9313 33.5625C64.2438 32.75 63.9 31.6615 63.9 30.2969ZM72.7687 24.2031V22.625H74.3V24.2031H72.7687ZM72.9562 34.5V26.0938H74.1437V34.5H72.9562ZM77.7156 32.3438C77.7156 32.7396 77.8823 33.0781 78.2156 33.3594C78.549 33.6302 79.0073 33.7656 79.5906 33.7656C80.3302 33.7656 80.9604 33.526 81.4813 33.0469C82.0125 32.5677 82.2781 31.9583 82.2781 31.2188V30.0469C81.8198 30.1615 81.0906 30.2969 80.0906 30.4531C79.2781 30.599 78.6792 30.8229 78.2938 31.125C77.9083 31.4271 77.7156 31.8333 77.7156 32.3438ZM76.4969 32.4375C76.4969 30.875 77.7052 29.9062 80.1219 29.5312C81.2052 29.3542 81.924 29.2083 82.2781 29.0938V28.6094C82.2781 28.0885 82.0906 27.6562 81.7156 27.3125C81.3406 26.9688 80.8094 26.7969 80.1219 26.7969C79.6219 26.7969 79.1375 26.9167 78.6688 27.1562C78.2104 27.3854 77.8198 27.6979 77.4969 28.0938L76.7156 27.4375C77.1323 26.9583 77.6323 26.5677 78.2156 26.2656C78.8094 25.9635 79.4344 25.8125 80.0906 25.8125C82.3406 25.8125 83.4656 26.9115 83.4656 29.1094V34.5H82.3094V33.125C82.1427 33.5729 81.799 33.9635 81.2781 34.2969C80.7573 34.6198 80.1427 34.7812 79.4344 34.7812C78.5073 34.7812 77.7833 34.5625 77.2625 34.125C76.7521 33.6875 76.4969 33.125 76.4969 32.4375Z" fill="black" fill-opacity="0.6"/>
<path d="M187 27.5L192 32.5L197 27.5H187Z" fill="black"/>
</svg>
