<svg width="220" height="59" viewBox="0 0 220 59" fill="none" xmlns="http://www.w3.org/2000/svg">
<path d="M16.8125 28.6562C16.8125 26.75 17.276 25.25 18.2031 24.1562C19.1302 23.0625 20.3333 22.5156 21.8125 22.5156C22.7292 22.5156 23.5052 22.7708 24.1406 23.2812C24.7865 23.7812 25.2708 24.3802 25.5938 25.0781L24.5312 25.4531C23.8333 24.2031 22.9167 23.5781 21.7812 23.5781C20.6562 23.5781 19.7604 24.0417 19.0938 24.9688C18.4271 25.8854 18.0938 27.1146 18.0938 28.6562C18.0938 30.2188 18.4323 31.4531 19.1094 32.3594C19.7865 33.2552 20.6771 33.7031 21.7812 33.7031C22.4792 33.7031 23.0885 33.5104 23.6094 33.125C24.1302 32.7292 24.5208 32.2448 24.7812 31.6719L25.9062 32.0312C25.5521 32.7917 25.0365 33.4427 24.3594 33.9844C23.6823 34.5156 22.8333 34.7812 21.8125 34.7812C20.3438 34.7812 19.1406 34.2396 18.2031 33.1562C17.276 32.0625 16.8125 30.5625 16.8125 28.6562ZM28.4 30.2969C28.4 31.3594 28.6448 32.2031 29.1344 32.8281C29.624 33.4531 30.2333 33.7656 30.9625 33.7656C31.6812 33.7656 32.2854 33.4531 32.775 32.8281C33.275 32.2031 33.525 31.3594 33.525 30.2969C33.525 29.2135 33.275 28.3646 32.775 27.75C32.275 27.1354 31.6708 26.8281 30.9625 26.8281C30.2437 26.8281 29.6344 27.1354 29.1344 27.75C28.6448 28.3646 28.4 29.2135 28.4 30.2969ZM27.1812 30.2969C27.1812 29.0156 27.5094 27.9479 28.1656 27.0938C28.8323 26.2396 29.7646 25.8125 30.9625 25.8125C32.15 25.8125 33.0771 26.2396 33.7437 27.0938C34.4104 27.9479 34.7437 29.0156 34.7437 30.2969C34.7437 30.8385 34.6708 31.3646 34.525 31.875C34.3896 32.3854 34.176 32.8646 33.8844 33.3125C33.6031 33.75 33.2073 34.1042 32.6969 34.375C32.1969 34.6458 31.6187 34.7812 30.9625 34.7812C30.3167 34.7812 29.7385 34.651 29.2281 34.3906C28.7281 34.1198 28.3323 33.7656 28.0406 33.3281C27.7594 32.8802 27.5458 32.401 27.4 31.8906C27.2542 31.3802 27.1812 30.849 27.1812 30.2969ZM36.8312 34.5V26.0938H38.0187V27.3594C38.1646 26.974 38.4406 26.6198 38.8469 26.2969C39.2531 25.974 39.7687 25.8125 40.3937 25.8125C41.0083 25.8125 41.4771 25.9896 41.8 26.3438C42.1229 26.6875 42.3729 27.1354 42.55 27.6875C42.6021 27.5521 42.6854 27.3958 42.8 27.2188C42.9146 27.0417 43.076 26.8385 43.2844 26.6094C43.4927 26.3802 43.7687 26.1927 44.1125 26.0469C44.4667 25.8906 44.8521 25.8125 45.2687 25.8125C46.8937 25.8125 47.7062 26.8958 47.7062 29.0625V34.5H46.4875V29.1562C46.4875 28.3854 46.3833 27.8073 46.175 27.4219C45.9667 27.026 45.5708 26.8281 44.9875 26.8281C44.3833 26.8281 43.8781 27.0833 43.4719 27.5938C43.0656 28.0938 42.8625 28.7292 42.8625 29.5V34.5H41.675V29.1406C41.675 27.599 41.1646 26.8281 40.1437 26.8281C39.5083 26.8281 38.9979 27.0677 38.6125 27.5469C38.2375 28.026 38.05 28.651 38.05 29.4219V34.5H36.8312ZM50.8875 32.3438C50.8875 32.7396 51.0542 33.0781 51.3875 33.3594C51.7208 33.6302 52.1792 33.7656 52.7625 33.7656C53.5021 33.7656 54.1323 33.526 54.6531 33.0469C55.1844 32.5677 55.45 31.9583 55.45 31.2188V30.0469C54.9917 30.1615 54.2625 30.2969 53.2625 30.4531C52.45 30.599 51.851 30.8229 51.4656 31.125C51.0802 31.4271 50.8875 31.8333 50.8875 32.3438ZM49.6688 32.4375C49.6688 30.875 50.8771 29.9062 53.2938 29.5312C54.3771 29.3542 55.0958 29.2083 55.45 29.0938V28.6094C55.45 28.0885 55.2625 27.6562 54.8875 27.3125C54.5125 26.9688 53.9813 26.7969 53.2938 26.7969C52.7938 26.7969 52.3094 26.9167 51.8406 27.1562C51.3823 27.3854 50.9917 27.6979 50.6688 28.0938L49.8875 27.4375C50.3042 26.9583 50.8042 26.5677 51.3875 26.2656C51.9813 25.9635 52.6063 25.8125 53.2625 25.8125C55.5125 25.8125 56.6375 26.9115 56.6375 29.1094V34.5H55.4813V33.125C55.3146 33.5729 54.9708 33.9635 54.45 34.2969C53.9292 34.6198 53.3146 34.7812 52.6063 34.7812C51.6792 34.7812 50.9552 34.5625 50.4344 34.125C49.924 33.6875 49.6688 33.125 49.6688 32.4375ZM59.2094 34.5V26.0938H60.3656V27.3125C60.5323 26.9375 60.8083 26.5938 61.1937 26.2812C61.5792 25.9688 62.074 25.8125 62.6781 25.8125C63.126 25.8125 63.5219 25.8854 63.8656 26.0312V27.125C63.4906 26.9792 63.0948 26.9062 62.6781 26.9062C61.9698 26.9062 61.4177 27.1719 61.0219 27.7031C60.626 28.2344 60.4281 28.9375 60.4281 29.8125V34.5H59.2094ZM64.6562 30.2969C64.6562 28.9635 64.9948 27.8854 65.6719 27.0625C66.349 26.2292 67.2604 25.8125 68.4062 25.8125C69.1562 25.8125 69.7969 26.0312 70.3281 26.4688C70.8698 26.8958 71.2292 27.4062 71.4062 28L70.375 28.2969C70.2188 27.8802 69.9635 27.5312 69.6094 27.25C69.2656 26.9688 68.8646 26.8281 68.4062 26.8281C67.6354 26.8281 67.0208 27.1562 66.5625 27.8125C66.1042 28.4688 65.875 29.2969 65.875 30.2969C65.875 31.3594 66.1146 32.2031 66.5938 32.8281C67.0729 33.4531 67.6771 33.7656 68.4062 33.7656C68.8958 33.7656 69.3385 33.6094 69.7344 33.2969C70.1406 32.974 70.4271 32.6042 70.5938 32.1875L71.625 32.5156C71.4062 33.1406 71.0052 33.6771 70.4219 34.125C69.849 34.5625 69.1771 34.7812 68.4062 34.7812C67.2917 34.7812 66.3854 34.375 65.6875 33.5625C65 32.75 64.6562 31.6615 64.6562 30.2969ZM74.025 32.3438C74.025 32.7396 74.1917 33.0781 74.525 33.3594C74.8583 33.6302 75.3167 33.7656 75.9 33.7656C76.6396 33.7656 77.2698 33.526 77.7906 33.0469C78.3219 32.5677 78.5875 31.9583 78.5875 31.2188V30.0469C78.1292 30.1615 77.4 30.2969 76.4 30.4531C75.5875 30.599 74.9885 30.8229 74.6031 31.125C74.2177 31.4271 74.025 31.8333 74.025 32.3438ZM72.8063 32.4375C72.8063 30.875 74.0146 29.9062 76.4313 29.5312C77.5146 29.3542 78.2333 29.2083 78.5875 29.0938V28.6094C78.5875 28.0885 78.4 27.6562 78.025 27.3125C77.65 26.9688 77.1188 26.7969 76.4313 26.7969C75.9313 26.7969 75.4469 26.9167 74.9781 27.1562C74.5198 27.3854 74.1292 27.6979 73.8063 28.0938L73.025 27.4375C73.4417 26.9583 73.9417 26.5677 74.525 26.2656C75.1188 25.9635 75.7438 25.8125 76.4 25.8125C78.65 25.8125 79.775 26.9115 79.775 29.1094V34.5H78.6188V33.125C78.4521 33.5729 78.1083 33.9635 77.5875 34.2969C77.0667 34.6198 76.4521 34.7812 75.7438 34.7812C74.8167 34.7812 74.0927 34.5625 73.5719 34.125C73.0615 33.6875 72.8063 33.125 72.8063 32.4375Z" fill="black" fill-opacity="0.6"/>
<path d="M187 27.5L192 32.5L197 27.5H187Z" fill="black"/>
</svg>
