<svg width="220" height="59" viewBox="0 0 220 59" fill="none" xmlns="http://www.w3.org/2000/svg">
<path d="M16.8125 28.6562C16.8125 26.8229 17.2552 25.3438 18.1406 24.2188C19.026 23.0833 20.2083 22.5156 21.6875 22.5156C23.1771 22.5156 24.3542 23.0781 25.2188 24.2031C26.0938 25.3281 26.5312 26.8177 26.5312 28.6719C26.5312 30.5469 26.0885 32.0365 25.2031 33.1406C24.3281 34.2344 23.1562 34.7812 21.6875 34.7812C20.2083 34.7812 19.026 34.2292 18.1406 33.125C17.2552 32.0104 16.8125 30.5208 16.8125 28.6562ZM18.0938 28.6562C18.0938 30.1979 18.4167 31.4271 19.0625 32.3438C19.7083 33.25 20.5833 33.7031 21.6875 33.7031C22.7708 33.7031 23.6354 33.2552 24.2812 32.3594C24.9271 31.4635 25.25 30.2344 25.25 28.6719C25.25 27.1302 24.9375 25.8958 24.3125 24.9688C23.6875 24.0417 22.8125 23.5781 21.6875 23.5781C20.5833 23.5781 19.7083 24.0365 19.0625 24.9531C18.4167 25.8698 18.0938 27.1042 18.0938 28.6562ZM28.7437 34.5V26.0938H29.9V27.3125C30.0667 26.9375 30.3427 26.5938 30.7281 26.2812C31.1135 25.9688 31.6083 25.8125 32.2125 25.8125C32.6604 25.8125 33.0562 25.8854 33.4 26.0312V27.125C33.025 26.9792 32.6292 26.9062 32.2125 26.9062C31.5042 26.9062 30.9521 27.1719 30.5562 27.7031C30.1604 28.2344 29.9625 28.9375 29.9625 29.8125V34.5H28.7437ZM34.8781 24.2031V22.625H36.4094V24.2031H34.8781ZM35.0656 34.5V26.0938H36.2531V34.5H35.0656ZM39.8563 30.1406C39.8563 31.1302 40.075 31.9323 40.5125 32.5469C40.95 33.151 41.5229 33.4531 42.2313 33.4531C42.95 33.4531 43.5177 33.1615 43.9344 32.5781C44.3615 31.9948 44.575 31.1771 44.575 30.125C44.575 29.1042 44.3563 28.3021 43.9188 27.7188C43.4917 27.125 42.9396 26.8281 42.2625 26.8281C41.5333 26.8281 40.95 27.1406 40.5125 27.7656C40.075 28.3802 39.8563 29.1719 39.8563 30.1406ZM38.6375 30.1562C38.6375 28.8542 38.9604 27.8073 39.6063 27.0156C40.2521 26.2135 41.0854 25.8125 42.1063 25.8125C42.7521 25.8125 43.2781 25.9792 43.6844 26.3125C44.101 26.6458 44.3979 27.0312 44.575 27.4688V26.0938H45.7625V33.5156C45.7625 35.1094 45.476 36.2917 44.9031 37.0625C44.3406 37.8438 43.4396 38.2344 42.2 38.2344C40.8563 38.2344 39.8146 37.724 39.075 36.7031L39.9188 36.1562C40.5646 36.8854 41.3354 37.25 42.2313 37.25C42.9708 37.25 43.5438 36.9583 43.95 36.375C44.3667 35.8021 44.575 35.0312 44.575 34.0625V32.8594C44.3563 33.3281 44.0385 33.7135 43.6219 34.0156C43.2156 34.3177 42.7208 34.4688 42.1375 34.4688C41.075 34.4688 40.226 34.0677 39.5906 33.2656C38.9552 32.4531 38.6375 31.4167 38.6375 30.1562ZM47.8969 30.2344C47.8969 28.9219 48.251 27.8594 48.9594 27.0469C49.6677 26.224 50.5844 25.8125 51.7094 25.8125C52.8552 25.8125 53.7563 26.2135 54.4125 27.0156C55.0688 27.8073 55.3969 28.8229 55.3969 30.0625C55.3969 30.2083 55.3865 30.4167 55.3656 30.6875H49.1156C49.1156 31.5312 49.35 32.2552 49.8188 32.8594C50.2875 33.4635 50.9385 33.7656 51.7719 33.7656C52.3135 33.7656 52.7927 33.6406 53.2094 33.3906C53.626 33.1302 53.949 32.7865 54.1781 32.3594L55.2094 32.6719C54.949 33.2865 54.5271 33.7917 53.9438 34.1875C53.3604 34.5833 52.6365 34.7812 51.7719 34.7812C50.6052 34.7812 49.6677 34.3646 48.9594 33.5312C48.251 32.6979 47.8969 31.599 47.8969 30.2344ZM49.1469 29.7656H54.1781C54.1781 28.9427 53.9542 28.25 53.5063 27.6875C53.0583 27.1146 52.4594 26.8281 51.7094 26.8281C50.949 26.8281 50.3344 27.1198 49.8656 27.7031C49.4073 28.2865 49.1677 28.974 49.1469 29.7656ZM57.4531 34.5V26.0938H58.6406V27.5312H58.6562C58.7812 27.1146 59.0885 26.724 59.5781 26.3594C60.0677 25.9948 60.651 25.8125 61.3281 25.8125C62.1094 25.8125 62.75 26.0573 63.25 26.5469C63.7604 27.0365 64.0156 27.875 64.0156 29.0625V34.5H62.7969V29.2656C62.7969 27.6406 62.2135 26.8281 61.0469 26.8281C60.401 26.8281 59.8438 27.0885 59.375 27.6094C58.9062 28.1302 58.6719 28.7552 58.6719 29.4844V34.5H57.4531ZM70.0656 30.2812C70.0656 28.8958 70.399 27.8073 71.0656 27.0156C71.7323 26.2135 72.576 25.8125 73.5969 25.8125C74.2115 25.8125 74.7427 25.9896 75.1906 26.3438C75.649 26.6979 75.9719 27.1042 76.1594 27.5625V22.3594H77.3469V34.5H76.1906V32.9844C75.9719 33.5052 75.6333 33.9375 75.175 34.2812C74.7271 34.6146 74.201 34.7812 73.5969 34.7812C73.1698 34.7812 72.7531 34.6927 72.3469 34.5156C71.951 34.349 71.576 34.099 71.2219 33.7656C70.8781 33.4219 70.5969 32.9531 70.3781 32.3594C70.1698 31.7552 70.0656 31.0625 70.0656 30.2812ZM71.2844 30.2812C71.2844 31.3333 71.5135 32.1771 71.9719 32.8125C72.4302 33.4479 73.024 33.7656 73.7531 33.7656C74.4302 33.7656 75.0031 33.4531 75.4719 32.8281C75.951 32.1927 76.1906 31.3438 76.1906 30.2812C76.1906 29.2292 75.951 28.3906 75.4719 27.7656C75.0031 27.1406 74.4302 26.8281 73.7531 26.8281C73.0135 26.8281 72.4146 27.1458 71.9562 27.7812C71.5083 28.4062 71.2844 29.2396 71.2844 30.2812ZM79.5281 30.2344C79.5281 28.9219 79.8823 27.8594 80.5906 27.0469C81.299 26.224 82.2156 25.8125 83.3406 25.8125C84.4865 25.8125 85.3875 26.2135 86.0438 27.0156C86.7 27.8073 87.0281 28.8229 87.0281 30.0625C87.0281 30.2083 87.0177 30.4167 86.9969 30.6875H80.7469C80.7469 31.5312 80.9813 32.2552 81.45 32.8594C81.9188 33.4635 82.5698 33.7656 83.4031 33.7656C83.9448 33.7656 84.424 33.6406 84.8406 33.3906C85.2573 33.1302 85.5802 32.7865 85.8094 32.3594L86.8406 32.6719C86.5802 33.2865 86.1583 33.7917 85.575 34.1875C84.9917 34.5833 84.2677 34.7812 83.4031 34.7812C82.2365 34.7812 81.299 34.3646 80.5906 33.5312C79.8823 32.6979 79.5281 31.599 79.5281 30.2344ZM80.7781 29.7656H85.8094C85.8094 28.9427 85.5854 28.25 85.1375 27.6875C84.6896 27.1146 84.0906 26.8281 83.3406 26.8281C82.5802 26.8281 81.9656 27.1198 81.4969 27.7031C81.0385 28.2865 80.799 28.974 80.7781 29.7656ZM93.3281 34.5V22.3594H94.5156V34.5H93.3281ZM97.9781 32.3438C97.9781 32.7396 98.1448 33.0781 98.4781 33.3594C98.8115 33.6302 99.2698 33.7656 99.8531 33.7656C100.593 33.7656 101.223 33.526 101.744 33.0469C102.275 32.5677 102.541 31.9583 102.541 31.2188V30.0469C102.082 30.1615 101.353 30.2969 100.353 30.4531C99.5406 30.599 98.9417 30.8229 98.5563 31.125C98.1708 31.4271 97.9781 31.8333 97.9781 32.3438ZM96.7594 32.4375C96.7594 30.875 97.9677 29.9062 100.384 29.5312C101.468 29.3542 102.186 29.2083 102.541 29.0938V28.6094C102.541 28.0885 102.353 27.6562 101.978 27.3125C101.603 26.9688 101.072 26.7969 100.384 26.7969C99.8844 26.7969 99.4 26.9167 98.9313 27.1562C98.4729 27.3854 98.0823 27.6979 97.7594 28.0938L96.9781 27.4375C97.3948 26.9583 97.8948 26.5677 98.4781 26.2656C99.0719 25.9635 99.6969 25.8125 100.353 25.8125C102.603 25.8125 103.728 26.9115 103.728 29.1094V34.5H102.572V33.125C102.405 33.5729 102.061 33.9635 101.541 34.2969C101.02 34.6198 100.405 34.7812 99.6969 34.7812C98.7698 34.7812 98.0458 34.5625 97.525 34.125C97.0146 33.6875 96.7594 33.125 96.7594 32.4375ZM110.544 34.5V22.3594H111.731V34.5H110.544ZM114.756 34.5V22.3594H115.944V34.5H114.756ZM119.406 32.3438C119.406 32.7396 119.573 33.0781 119.906 33.3594C120.24 33.6302 120.698 33.7656 121.281 33.7656C122.021 33.7656 122.651 33.526 123.172 33.0469C123.703 32.5677 123.969 31.9583 123.969 31.2188V30.0469C123.51 30.1615 122.781 30.2969 121.781 30.4531C120.969 30.599 120.37 30.8229 119.984 31.125C119.599 31.4271 119.406 31.8333 119.406 32.3438ZM118.188 32.4375C118.188 30.875 119.396 29.9062 121.812 29.5312C122.896 29.3542 123.615 29.2083 123.969 29.0938V28.6094C123.969 28.0885 123.781 27.6562 123.406 27.3125C123.031 26.9688 122.5 26.7969 121.812 26.7969C121.312 26.7969 120.828 26.9167 120.359 27.1562C119.901 27.3854 119.51 27.6979 119.188 28.0938L118.406 27.4375C118.823 26.9583 119.323 26.5677 119.906 26.2656C120.5 25.9635 121.125 25.8125 121.781 25.8125C124.031 25.8125 125.156 26.9115 125.156 29.1094V34.5H124V33.125C123.833 33.5729 123.49 33.9635 122.969 34.2969C122.448 34.6198 121.833 34.7812 121.125 34.7812C120.198 34.7812 119.474 34.5625 118.953 34.125C118.443 33.6875 118.188 33.125 118.188 32.4375ZM127.728 34.5V26.0938H128.916V27.3594C129.061 26.974 129.338 26.6198 129.744 26.2969C130.15 25.974 130.666 25.8125 131.291 25.8125C131.905 25.8125 132.374 25.9896 132.697 26.3438C133.02 26.6875 133.27 27.1354 133.447 27.6875C133.499 27.5521 133.582 27.3958 133.697 27.2188C133.811 27.0417 133.973 26.8385 134.181 26.6094C134.39 26.3802 134.666 26.1927 135.009 26.0469C135.364 25.8906 135.749 25.8125 136.166 25.8125C137.791 25.8125 138.603 26.8958 138.603 29.0625V34.5H137.384V29.1562C137.384 28.3854 137.28 27.8073 137.072 27.4219C136.864 27.026 136.468 26.8281 135.884 26.8281C135.28 26.8281 134.775 27.0833 134.369 27.5938C133.963 28.0938 133.759 28.7292 133.759 29.5V34.5H132.572V29.1406C132.572 27.599 132.061 26.8281 131.041 26.8281C130.405 26.8281 129.895 27.0677 129.509 27.5469C129.134 28.026 128.947 28.651 128.947 29.4219V34.5H127.728ZM141.784 32.3438C141.784 32.7396 141.951 33.0781 142.284 33.3594C142.618 33.6302 143.076 33.7656 143.659 33.7656C144.399 33.7656 145.029 33.526 145.55 33.0469C146.081 32.5677 146.347 31.9583 146.347 31.2188V30.0469C145.889 30.1615 145.159 30.2969 144.159 30.4531C143.347 30.599 142.748 30.8229 142.363 31.125C141.977 31.4271 141.784 31.8333 141.784 32.3438ZM140.566 32.4375C140.566 30.875 141.774 29.9062 144.191 29.5312C145.274 29.3542 145.993 29.2083 146.347 29.0938V28.6094C146.347 28.0885 146.159 27.6562 145.784 27.3125C145.409 26.9688 144.878 26.7969 144.191 26.7969C143.691 26.7969 143.206 26.9167 142.738 27.1562C142.279 27.3854 141.889 27.6979 141.566 28.0938L140.784 27.4375C141.201 26.9583 141.701 26.5677 142.284 26.2656C142.878 25.9635 143.503 25.8125 144.159 25.8125C146.409 25.8125 147.534 26.9115 147.534 29.1094V34.5H146.378V33.125C146.211 33.5729 145.868 33.9635 145.347 34.2969C144.826 34.6198 144.211 34.7812 143.503 34.7812C142.576 34.7812 141.852 34.5625 141.331 34.125C140.821 33.6875 140.566 33.125 140.566 32.4375ZM149.544 30.2812C149.544 28.8958 149.877 27.8073 150.544 27.0156C151.21 26.2135 152.054 25.8125 153.075 25.8125C153.69 25.8125 154.221 25.9896 154.669 26.3438C155.127 26.6979 155.45 27.1042 155.637 27.5625V22.3594H156.825V34.5H155.669V32.9844C155.45 33.5052 155.111 33.9375 154.653 34.2812C154.205 34.6146 153.679 34.7812 153.075 34.7812C152.648 34.7812 152.231 34.6927 151.825 34.5156C151.429 34.349 151.054 34.099 150.7 33.7656C150.356 33.4219 150.075 32.9531 149.856 32.3594C149.648 31.7552 149.544 31.0625 149.544 30.2812ZM150.762 30.2812C150.762 31.3333 150.992 32.1771 151.45 32.8125C151.908 33.4479 152.502 33.7656 153.231 33.7656C153.908 33.7656 154.481 33.4531 154.95 32.8281C155.429 32.1927 155.669 31.3438 155.669 30.2812C155.669 29.2292 155.429 28.3906 154.95 27.7656C154.481 27.1406 153.908 26.8281 153.231 26.8281C152.492 26.8281 151.893 27.1458 151.434 27.7812C150.986 28.4062 150.762 29.2396 150.762 30.2812ZM160.194 32.3438C160.194 32.7396 160.36 33.0781 160.694 33.3594C161.027 33.6302 161.485 33.7656 162.069 33.7656C162.808 33.7656 163.439 33.526 163.959 33.0469C164.491 32.5677 164.756 31.9583 164.756 31.2188V30.0469C164.298 30.1615 163.569 30.2969 162.569 30.4531C161.756 30.599 161.157 30.8229 160.772 31.125C160.386 31.4271 160.194 31.8333 160.194 32.3438ZM158.975 32.4375C158.975 30.875 160.183 29.9062 162.6 29.5312C163.683 29.3542 164.402 29.2083 164.756 29.0938V28.6094C164.756 28.0885 164.569 27.6562 164.194 27.3125C163.819 26.9688 163.288 26.7969 162.6 26.7969C162.1 26.7969 161.616 26.9167 161.147 27.1562C160.689 27.3854 160.298 27.6979 159.975 28.0938L159.194 27.4375C159.61 26.9583 160.11 26.5677 160.694 26.2656C161.288 25.9635 161.913 25.8125 162.569 25.8125C164.819 25.8125 165.944 26.9115 165.944 29.1094V34.5H164.788V33.125C164.621 33.5729 164.277 33.9635 163.756 34.2969C163.235 34.6198 162.621 34.7812 161.913 34.7812C160.985 34.7812 160.261 34.5625 159.741 34.125C159.23 33.6875 158.975 33.125 158.975 32.4375Z" fill="black" fill-opacity="0.6"/>
</svg>
