<svg width="220" height="59" viewBox="0 0 220 59" fill="none" xmlns="http://www.w3.org/2000/svg">
<path d="M16.1875 23.8594V22.7969H24.5625V23.8594H21V34.5H19.75V23.8594H16.1875ZM26.2437 24.2031V22.625H27.775V24.2031H26.2437ZM26.4312 34.5V26.0938H27.6187V34.5H26.4312ZM31.8469 30.2812C31.8469 31.3229 32.0604 32.1667 32.4875 32.8125C32.9146 33.4479 33.5031 33.7656 34.2531 33.7656C34.9615 33.7656 35.55 33.4531 36.0188 32.8281C36.4875 32.2031 36.7219 31.3542 36.7219 30.2812C36.7219 29.2708 36.4979 28.4427 36.05 27.7969C35.6125 27.151 35.0135 26.8281 34.2531 26.8281C33.5448 26.8281 32.9667 27.1562 32.5188 27.8125C32.0708 28.4583 31.8469 29.2812 31.8469 30.2812ZM30.6594 38.1719V26.0938H31.8156V27.6094C32.0552 27.0677 32.399 26.6354 32.8469 26.3125C33.3052 25.9792 33.826 25.8125 34.4094 25.8125C35.4302 25.8125 36.274 26.2188 36.9406 27.0312C37.6073 27.8438 37.9406 28.9271 37.9406 30.2812C37.9406 31.7292 37.5917 32.8438 36.8938 33.625C36.1958 34.3958 35.3677 34.7812 34.4094 34.7812C33.7844 34.7812 33.2531 34.6198 32.8156 34.2969C32.3781 33.9635 32.0552 33.5469 31.8469 33.0469V38.1719H30.6594ZM40.6844 30.2969C40.6844 31.3594 40.9292 32.2031 41.4188 32.8281C41.9083 33.4531 42.5177 33.7656 43.2469 33.7656C43.9656 33.7656 44.5698 33.4531 45.0594 32.8281C45.5594 32.2031 45.8094 31.3594 45.8094 30.2969C45.8094 29.2135 45.5594 28.3646 45.0594 27.75C44.5594 27.1354 43.9552 26.8281 43.2469 26.8281C42.5281 26.8281 41.9188 27.1354 41.4188 27.75C40.9292 28.3646 40.6844 29.2135 40.6844 30.2969ZM39.4656 30.2969C39.4656 29.0156 39.7938 27.9479 40.45 27.0938C41.1167 26.2396 42.049 25.8125 43.2469 25.8125C44.4344 25.8125 45.3615 26.2396 46.0281 27.0938C46.6948 27.9479 47.0281 29.0156 47.0281 30.2969C47.0281 30.8385 46.9552 31.3646 46.8094 31.875C46.674 32.3854 46.4604 32.8646 46.1688 33.3125C45.8875 33.75 45.4917 34.1042 44.9813 34.375C44.4813 34.6458 43.9031 34.7812 43.2469 34.7812C42.601 34.7812 42.0229 34.651 41.5125 34.3906C41.0125 34.1198 40.6167 33.7656 40.325 33.3281C40.0438 32.8802 39.8302 32.401 39.6844 31.8906C39.5385 31.3802 39.4656 30.849 39.4656 30.2969ZM52.6094 30.2812C52.6094 28.8958 52.9427 27.8073 53.6094 27.0156C54.276 26.2135 55.1198 25.8125 56.1406 25.8125C56.7552 25.8125 57.2865 25.9896 57.7344 26.3438C58.1927 26.6979 58.5156 27.1042 58.7031 27.5625V22.3594H59.8906V34.5H58.7344V32.9844C58.5156 33.5052 58.1771 33.9375 57.7188 34.2812C57.2708 34.6146 56.7448 34.7812 56.1406 34.7812C55.7135 34.7812 55.2969 34.6927 54.8906 34.5156C54.4948 34.349 54.1198 34.099 53.7656 33.7656C53.4219 33.4219 53.1406 32.9531 52.9219 32.3594C52.7135 31.7552 52.6094 31.0625 52.6094 30.2812ZM53.8281 30.2812C53.8281 31.3333 54.0573 32.1771 54.5156 32.8125C54.974 33.4479 55.5677 33.7656 56.2969 33.7656C56.974 33.7656 57.5469 33.4531 58.0156 32.8281C58.4948 32.1927 58.7344 31.3438 58.7344 30.2812C58.7344 29.2292 58.4948 28.3906 58.0156 27.7656C57.5469 27.1406 56.974 26.8281 56.2969 26.8281C55.5573 26.8281 54.9583 27.1458 54.5 27.7812C54.0521 28.4062 53.8281 29.2396 53.8281 30.2812ZM62.0719 30.2344C62.0719 28.9219 62.426 27.8594 63.1344 27.0469C63.8427 26.224 64.7594 25.8125 65.8844 25.8125C67.0302 25.8125 67.9313 26.2135 68.5875 27.0156C69.2438 27.8073 69.5719 28.8229 69.5719 30.0625C69.5719 30.2083 69.5615 30.4167 69.5406 30.6875H63.2906C63.2906 31.5312 63.525 32.2552 63.9938 32.8594C64.4625 33.4635 65.1135 33.7656 65.9469 33.7656C66.4885 33.7656 66.9677 33.6406 67.3844 33.3906C67.801 33.1302 68.124 32.7865 68.3531 32.3594L69.3844 32.6719C69.124 33.2865 68.7021 33.7917 68.1188 34.1875C67.5354 34.5833 66.8115 34.7812 65.9469 34.7812C64.7802 34.7812 63.8427 34.3646 63.1344 33.5312C62.426 32.6979 62.0719 31.599 62.0719 30.2344ZM63.3219 29.7656H68.3531C68.3531 28.9427 68.1292 28.25 67.6813 27.6875C67.2333 27.1146 66.6344 26.8281 65.8844 26.8281C65.124 26.8281 64.5094 27.1198 64.0406 27.7031C63.5823 28.2865 63.3427 28.974 63.3219 29.7656ZM75.8719 34.5V22.3594H77.0594V34.5H75.8719ZM80.5531 30.2969C80.5531 31.3594 80.7979 32.2031 81.2875 32.8281C81.7771 33.4531 82.3865 33.7656 83.1156 33.7656C83.8344 33.7656 84.4385 33.4531 84.9281 32.8281C85.4281 32.2031 85.6781 31.3594 85.6781 30.2969C85.6781 29.2135 85.4281 28.3646 84.9281 27.75C84.4281 27.1354 83.824 26.8281 83.1156 26.8281C82.3969 26.8281 81.7875 27.1354 81.2875 27.75C80.7979 28.3646 80.5531 29.2135 80.5531 30.2969ZM79.3344 30.2969C79.3344 29.0156 79.6625 27.9479 80.3187 27.0938C80.9854 26.2396 81.9177 25.8125 83.1156 25.8125C84.3031 25.8125 85.2302 26.2396 85.8969 27.0938C86.5635 27.9479 86.8969 29.0156 86.8969 30.2969C86.8969 30.8385 86.824 31.3646 86.6781 31.875C86.5427 32.3854 86.3292 32.8646 86.0375 33.3125C85.7562 33.75 85.3604 34.1042 84.85 34.375C84.35 34.6458 83.7719 34.7812 83.1156 34.7812C82.4698 34.7812 81.8917 34.651 81.3812 34.3906C80.8812 34.1198 80.4854 33.7656 80.1937 33.3281C79.9125 32.8802 79.699 32.401 79.5531 31.8906C79.4073 31.3802 79.3344 30.849 79.3344 30.2969ZM88.4219 30.2969C88.4219 28.9635 88.7604 27.8854 89.4375 27.0625C90.1146 26.2292 91.026 25.8125 92.1719 25.8125C92.9219 25.8125 93.5625 26.0312 94.0938 26.4688C94.6354 26.8958 94.9948 27.4062 95.1719 28L94.1406 28.2969C93.9844 27.8802 93.7292 27.5312 93.375 27.25C93.0312 26.9688 92.6302 26.8281 92.1719 26.8281C91.401 26.8281 90.7865 27.1562 90.3281 27.8125C89.8698 28.4688 89.6406 29.2969 89.6406 30.2969C89.6406 31.3594 89.8802 32.2031 90.3594 32.8281C90.8385 33.4531 91.4427 33.7656 92.1719 33.7656C92.6615 33.7656 93.1042 33.6094 93.5 33.2969C93.9062 32.974 94.1927 32.6042 94.3594 32.1875L95.3906 32.5156C95.1719 33.1406 94.7708 33.6771 94.1875 34.125C93.6146 34.5625 92.9427 34.7812 92.1719 34.7812C91.0573 34.7812 90.151 34.375 89.4531 33.5625C88.7656 32.75 88.4219 31.6615 88.4219 30.2969ZM97.7906 32.3438C97.7906 32.7396 97.9573 33.0781 98.2906 33.3594C98.624 33.6302 99.0823 33.7656 99.6656 33.7656C100.405 33.7656 101.035 33.526 101.556 33.0469C102.088 32.5677 102.353 31.9583 102.353 31.2188V30.0469C101.895 30.1615 101.166 30.2969 100.166 30.4531C99.3531 30.599 98.7542 30.8229 98.3688 31.125C97.9833 31.4271 97.7906 31.8333 97.7906 32.3438ZM96.5719 32.4375C96.5719 30.875 97.7802 29.9062 100.197 29.5312C101.28 29.3542 101.999 29.2083 102.353 29.0938V28.6094C102.353 28.0885 102.166 27.6562 101.791 27.3125C101.416 26.9688 100.884 26.7969 100.197 26.7969C99.6969 26.7969 99.2125 26.9167 98.7438 27.1562C98.2854 27.3854 97.8948 27.6979 97.5719 28.0938L96.7906 27.4375C97.2073 26.9583 97.7073 26.5677 98.2906 26.2656C98.8844 25.9635 99.5094 25.8125 100.166 25.8125C102.416 25.8125 103.541 26.9115 103.541 29.1094V34.5H102.384V33.125C102.218 33.5729 101.874 33.9635 101.353 34.2969C100.832 34.6198 100.218 34.7812 99.5094 34.7812C98.5823 34.7812 97.8583 34.5625 97.3375 34.125C96.8271 33.6875 96.5719 33.125 96.5719 32.4375ZM106.3 34.5V22.3594H107.488V34.5H106.3ZM110.45 24.2031V22.625H111.981V24.2031H110.45ZM110.637 34.5V26.0938H111.825V34.5H110.637ZM114.022 34.5V33.6875L118.928 27.1094H114.459V26.0938H120.491V26.8594L115.553 33.4844H120.616V34.5H114.022ZM122.875 32.3438C122.875 32.7396 123.042 33.0781 123.375 33.3594C123.708 33.6302 124.167 33.7656 124.75 33.7656C125.49 33.7656 126.12 33.526 126.641 33.0469C127.172 32.5677 127.438 31.9583 127.438 31.2188V30.0469C126.979 30.1615 126.25 30.2969 125.25 30.4531C124.438 30.599 123.839 30.8229 123.453 31.125C123.068 31.4271 122.875 31.8333 122.875 32.3438ZM121.656 32.4375C121.656 30.875 122.865 29.9062 125.281 29.5312C126.365 29.3542 127.083 29.2083 127.438 29.0938V28.6094C127.438 28.0885 127.25 27.6562 126.875 27.3125C126.5 26.9688 125.969 26.7969 125.281 26.7969C124.781 26.7969 124.297 26.9167 123.828 27.1562C123.37 27.3854 122.979 27.6979 122.656 28.0938L121.875 27.4375C122.292 26.9583 122.792 26.5677 123.375 26.2656C123.969 25.9635 124.594 25.8125 125.25 25.8125C127.5 25.8125 128.625 26.9115 128.625 29.1094V34.5H127.469V33.125C127.302 33.5729 126.958 33.9635 126.438 34.2969C125.917 34.6198 125.302 34.7812 124.594 34.7812C123.667 34.7812 122.943 34.5625 122.422 34.125C121.911 33.6875 121.656 33.125 121.656 32.4375ZM130.634 30.2969C130.634 28.9635 130.973 27.8854 131.65 27.0625C132.327 26.2292 133.239 25.8125 134.384 25.8125C135.134 25.8125 135.775 26.0312 136.306 26.4688C136.848 26.8958 137.207 27.4062 137.384 28L136.353 28.2969C136.197 27.8802 135.942 27.5312 135.588 27.25C135.244 26.9688 134.843 26.8281 134.384 26.8281C133.614 26.8281 132.999 27.1562 132.541 27.8125C132.082 28.4688 131.853 29.2969 131.853 30.2969C131.853 31.3594 132.093 32.2031 132.572 32.8281C133.051 33.4531 133.655 33.7656 134.384 33.7656C134.874 33.7656 135.317 33.6094 135.713 33.2969C136.119 32.974 136.405 32.6042 136.572 32.1875L137.603 32.5156C137.384 33.1406 136.983 33.6771 136.4 34.125C135.827 34.5625 135.155 34.7812 134.384 34.7812C133.27 34.7812 132.364 34.375 131.666 33.5625C130.978 32.75 130.634 31.6615 130.634 30.2969ZM139.503 24.2031V22.625H141.034V24.2031H139.503ZM139.691 34.5V26.0938H140.878V34.5H139.691ZM144.481 30.2969C144.481 31.3594 144.726 32.2031 145.216 32.8281C145.705 33.4531 146.315 33.7656 147.044 33.7656C147.762 33.7656 148.367 33.4531 148.856 32.8281C149.356 32.2031 149.606 31.3594 149.606 30.2969C149.606 29.2135 149.356 28.3646 148.856 27.75C148.356 27.1354 147.752 26.8281 147.044 26.8281C146.325 26.8281 145.716 27.1354 145.216 27.75C144.726 28.3646 144.481 29.2135 144.481 30.2969ZM143.262 30.2969C143.262 29.0156 143.591 27.9479 144.247 27.0938C144.914 26.2396 145.846 25.8125 147.044 25.8125C148.231 25.8125 149.158 26.2396 149.825 27.0938C150.492 27.9479 150.825 29.0156 150.825 30.2969C150.825 30.8385 150.752 31.3646 150.606 31.875C150.471 32.3854 150.257 32.8646 149.966 33.3125C149.684 33.75 149.289 34.1042 148.778 34.375C148.278 34.6458 147.7 34.7812 147.044 34.7812C146.398 34.7812 145.82 34.651 145.309 34.3906C144.809 34.1198 144.414 33.7656 144.122 33.3281C143.841 32.8802 143.627 32.401 143.481 31.8906C143.335 31.3802 143.262 30.849 143.262 30.2969ZM145.887 24.5312L147.653 21.7969H149.231L146.95 24.5312H145.887ZM152.913 34.5V26.0938H154.1V27.5312H154.116C154.241 27.1146 154.548 26.724 155.038 26.3594C155.527 25.9948 156.11 25.8125 156.788 25.8125C157.569 25.8125 158.209 26.0573 158.709 26.5469C159.22 27.0365 159.475 27.875 159.475 29.0625V34.5H158.256V29.2656C158.256 27.6406 157.673 26.8281 156.506 26.8281C155.86 26.8281 155.303 27.0885 154.834 27.6094C154.366 28.1302 154.131 28.7552 154.131 29.4844V34.5H152.913Z" fill="black" fill-opacity="0.6"/>
<path d="M187 27.5L192 32.5L197 27.5H187Z" fill="black"/>
</svg>
