<svg width="263" height="59" viewBox="0 0 263 59" fill="none" xmlns="http://www.w3.org/2000/svg">
<path d="M17.625 34.5V22.7969H19.25L21.8125 29.0938C21.9792 29.5312 22.2031 30.1302 22.4844 30.8906C22.776 31.6406 22.9271 32.0312 22.9375 32.0625H23C23.0625 31.9062 23.4427 30.9167 24.1406 29.0938L26.6875 22.7969H28.3438V34.5H27.0938V27.8906C27.0938 27.0469 27.1458 25.8646 27.25 24.3438H27.1875L26.5938 25.9062L23.5312 33.625H22.4375L19.375 25.9062L18.75 24.3438H18.6875C18.8125 26.0208 18.875 27.2031 18.875 27.8906V34.5H17.625ZM31.2594 31.5469V26.0938H32.4781V31.2969C32.4781 32.9427 33.0823 33.7656 34.2906 33.7656C35.0302 33.7656 35.5927 33.4792 35.9781 32.9062C36.374 32.3333 36.5719 31.6562 36.5719 30.875V26.0938H37.7594V34.5H36.6031V33.1406C36.5198 33.4844 36.2594 33.8438 35.8219 34.2188C35.3948 34.5938 34.7906 34.7812 34.0094 34.7812C33.2073 34.7812 32.5458 34.5104 32.025 33.9688C31.5146 33.4167 31.2594 32.6094 31.2594 31.5469ZM40.425 34.5V26.0938H41.6125V27.5312H41.6281C41.7531 27.1146 42.0604 26.724 42.55 26.3594C43.0396 25.9948 43.6229 25.8125 44.3 25.8125C45.0812 25.8125 45.7219 26.0573 46.2219 26.5469C46.7323 27.0365 46.9875 27.875 46.9875 29.0625V34.5H45.7687V29.2656C45.7687 27.6406 45.1854 26.8281 44.0187 26.8281C43.3729 26.8281 42.8156 27.0885 42.3469 27.6094C41.8781 28.1302 41.6437 28.7552 41.6437 29.4844V34.5H40.425ZM49.6688 24.2031V22.625H51.2V24.2031H49.6688ZM49.8563 34.5V26.0938H51.0438V34.5H49.8563ZM53.4281 30.2969C53.4281 28.9635 53.7667 27.8854 54.4437 27.0625C55.1208 26.2292 56.0323 25.8125 57.1781 25.8125C57.9281 25.8125 58.5687 26.0312 59.1 26.4688C59.6417 26.8958 60.001 27.4062 60.1781 28L59.1469 28.2969C58.9906 27.8802 58.7354 27.5312 58.3812 27.25C58.0375 26.9688 57.6365 26.8281 57.1781 26.8281C56.4073 26.8281 55.7927 27.1562 55.3344 27.8125C54.876 28.4688 54.6469 29.2969 54.6469 30.2969C54.6469 31.3594 54.8865 32.2031 55.3656 32.8281C55.8448 33.4531 56.449 33.7656 57.1781 33.7656C57.6677 33.7656 58.1104 33.6094 58.5062 33.2969C58.9125 32.974 59.199 32.6042 59.3656 32.1875L60.3969 32.5156C60.1781 33.1406 59.7771 33.6771 59.1937 34.125C58.6208 34.5625 57.949 34.7812 57.1781 34.7812C56.0635 34.7812 55.1573 34.375 54.4594 33.5625C53.7719 32.75 53.4281 31.6615 53.4281 30.2969ZM62.2969 24.2031V22.625H63.8281V24.2031H62.2969ZM62.4844 34.5V26.0938H63.6719V34.5H62.4844ZM67.9 30.2812C67.9 31.3229 68.1135 32.1667 68.5406 32.8125C68.9677 33.4479 69.5563 33.7656 70.3063 33.7656C71.0146 33.7656 71.6031 33.4531 72.0719 32.8281C72.5406 32.2031 72.775 31.3542 72.775 30.2812C72.775 29.2708 72.551 28.4427 72.1031 27.7969C71.6656 27.151 71.0667 26.8281 70.3063 26.8281C69.5979 26.8281 69.0198 27.1562 68.5719 27.8125C68.124 28.4583 67.9 29.2812 67.9 30.2812ZM66.7125 38.1719V26.0938H67.8688V27.6094C68.1083 27.0677 68.4521 26.6354 68.9 26.3125C69.3583 25.9792 69.8792 25.8125 70.4625 25.8125C71.4833 25.8125 72.3271 26.2188 72.9938 27.0312C73.6604 27.8438 73.9938 28.9271 73.9938 30.2812C73.9938 31.7292 73.6448 32.8438 72.9469 33.625C72.249 34.3958 71.4208 34.7812 70.4625 34.7812C69.8375 34.7812 69.3063 34.6198 68.8688 34.2969C68.4313 33.9635 68.1083 33.5469 67.9 33.0469V38.1719H66.7125ZM76.2062 24.2031V22.625H77.7375V24.2031H76.2062ZM76.3937 34.5V26.0938H77.5812V34.5H76.3937ZM81.1844 30.2969C81.1844 31.3594 81.4292 32.2031 81.9188 32.8281C82.4083 33.4531 83.0177 33.7656 83.7469 33.7656C84.4656 33.7656 85.0698 33.4531 85.5594 32.8281C86.0594 32.2031 86.3094 31.3594 86.3094 30.2969C86.3094 29.2135 86.0594 28.3646 85.5594 27.75C85.0594 27.1354 84.4552 26.8281 83.7469 26.8281C83.0281 26.8281 82.4188 27.1354 81.9188 27.75C81.4292 28.3646 81.1844 29.2135 81.1844 30.2969ZM79.9656 30.2969C79.9656 29.0156 80.2938 27.9479 80.95 27.0938C81.6167 26.2396 82.549 25.8125 83.7469 25.8125C84.9344 25.8125 85.8615 26.2396 86.5281 27.0938C87.1948 27.9479 87.5281 29.0156 87.5281 30.2969C87.5281 30.8385 87.4552 31.3646 87.3094 31.875C87.174 32.3854 86.9604 32.8646 86.6688 33.3125C86.3875 33.75 85.9917 34.1042 85.4813 34.375C84.9813 34.6458 84.4031 34.7812 83.7469 34.7812C83.101 34.7812 82.5229 34.651 82.0125 34.3906C81.5125 34.1198 81.1167 33.7656 80.825 33.3281C80.5438 32.8802 80.3302 32.401 80.1844 31.8906C80.0385 31.3802 79.9656 30.849 79.9656 30.2969Z" fill="black" fill-opacity="0.6"/>
<path d="M230 27.5L235 32.5L240 27.5H230Z" fill="black"/>
</svg>
