<svg width="263" height="144" viewBox="0 0 263 144" fill="none" xmlns="http://www.w3.org/2000/svg">
<path d="M18.875 70.875H22.0312C22.8125 70.875 23.4115 70.6667 23.8281 70.25C24.2552 69.8333 24.4688 69.2812 24.4688 68.5938C24.4688 67.9271 24.2448 67.3906 23.7969 66.9844C23.3594 66.5677 22.7292 66.3594 21.9062 66.3594H18.875V70.875ZM17.625 77V65.2969H22.1875C23.3333 65.2969 24.2135 65.6094 24.8281 66.2344C25.4427 66.849 25.75 67.6094 25.75 68.5156C25.75 69.3385 25.5417 70.0052 25.125 70.5156C24.7083 71.026 24.25 71.349 23.75 71.4844C24.1875 71.7135 24.5052 71.9948 24.7031 72.3281C24.901 72.6615 25.0625 73.125 25.1875 73.7188C25.3229 74.3021 25.4167 74.7031 25.4688 74.9219C25.5312 75.1302 25.6354 75.4323 25.7812 75.8281C25.9375 76.224 26.125 76.6146 26.3438 77H24.9375C24.7604 76.6667 24.599 76.3125 24.4531 75.9375C24.3177 75.5521 24.2188 75.2396 24.1562 75C24.0938 74.75 24 74.3542 23.875 73.8125C23.7396 73.2292 23.5312 72.7708 23.25 72.4375C22.9792 72.1042 22.5417 71.9375 21.9375 71.9375H18.875V77H17.625ZM27.4 72.7344C27.4 71.4219 27.7542 70.3594 28.4625 69.5469C29.1708 68.724 30.0875 68.3125 31.2125 68.3125C32.3583 68.3125 33.2594 68.7135 33.9156 69.5156C34.5719 70.3073 34.9 71.3229 34.9 72.5625C34.9 72.7083 34.8896 72.9167 34.8687 73.1875H28.6187C28.6187 74.0312 28.8531 74.7552 29.3219 75.3594C29.7906 75.9635 30.4417 76.2656 31.275 76.2656C31.8167 76.2656 32.2958 76.1406 32.7125 75.8906C33.1292 75.6302 33.4521 75.2865 33.6812 74.8594L34.7125 75.1719C34.4521 75.7865 34.0302 76.2917 33.4469 76.6875C32.8635 77.0833 32.1396 77.2812 31.275 77.2812C30.1083 77.2812 29.1708 76.8646 28.4625 76.0312C27.7542 75.1979 27.4 74.099 27.4 72.7344ZM28.65 72.2656H33.6812C33.6812 71.4427 33.4573 70.75 33.0094 70.1875C32.5615 69.6146 31.9625 69.3281 31.2125 69.3281C30.4521 69.3281 29.8375 69.6198 29.3687 70.2031C28.9104 70.7865 28.6708 71.474 28.65 72.2656ZM36.0812 69.6094V68.5938H37.5187V67.2969C37.5187 66.474 37.7271 65.8646 38.1437 65.4688C38.5604 65.0625 39.1333 64.8594 39.8625 64.8594H40.9562V65.8594H40.0187C39.1646 65.8594 38.7375 66.3802 38.7375 67.4219V68.5938H40.7375V69.6094H38.7375V77H37.5187V69.6094H36.0812ZM41.8875 72.7344C41.8875 71.4219 42.2417 70.3594 42.95 69.5469C43.6583 68.724 44.575 68.3125 45.7 68.3125C46.8458 68.3125 47.7469 68.7135 48.4031 69.5156C49.0594 70.3073 49.3875 71.3229 49.3875 72.5625C49.3875 72.7083 49.3771 72.9167 49.3563 73.1875H43.1063C43.1063 74.0312 43.3406 74.7552 43.8094 75.3594C44.2781 75.9635 44.9292 76.2656 45.7625 76.2656C46.3042 76.2656 46.7833 76.1406 47.2 75.8906C47.6167 75.6302 47.9396 75.2865 48.1688 74.8594L49.2 75.1719C48.9396 75.7865 48.5177 76.2917 47.9344 76.6875C47.351 77.0833 46.6271 77.2812 45.7625 77.2812C44.5958 77.2812 43.6583 76.8646 42.95 76.0312C42.2417 75.1979 41.8875 74.099 41.8875 72.7344ZM43.1375 72.2656H48.1688C48.1688 71.4427 47.9448 70.75 47.4969 70.1875C47.049 69.6146 46.45 69.3281 45.7 69.3281C44.9396 69.3281 44.325 69.6198 43.8563 70.2031C43.3979 70.7865 43.1583 71.474 43.1375 72.2656ZM51.4437 77V68.5938H52.6V69.8125C52.7667 69.4375 53.0427 69.0938 53.4281 68.7812C53.8135 68.4688 54.3083 68.3125 54.9125 68.3125C55.3604 68.3125 55.7562 68.3854 56.1 68.5312V69.625C55.725 69.4792 55.3292 69.4062 54.9125 69.4062C54.2042 69.4062 53.6521 69.6719 53.2562 70.2031C52.8604 70.7344 52.6625 71.4375 52.6625 72.3125V77H51.4437ZM56.8906 72.7344C56.8906 71.4219 57.2448 70.3594 57.9531 69.5469C58.6615 68.724 59.5781 68.3125 60.7031 68.3125C61.849 68.3125 62.75 68.7135 63.4062 69.5156C64.0625 70.3073 64.3906 71.3229 64.3906 72.5625C64.3906 72.7083 64.3802 72.9167 64.3594 73.1875H58.1094C58.1094 74.0312 58.3438 74.7552 58.8125 75.3594C59.2812 75.9635 59.9323 76.2656 60.7656 76.2656C61.3073 76.2656 61.7865 76.1406 62.2031 75.8906C62.6198 75.6302 62.9427 75.2865 63.1719 74.8594L64.2031 75.1719C63.9427 75.7865 63.5208 76.2917 62.9375 76.6875C62.3542 77.0833 61.6302 77.2812 60.7656 77.2812C59.599 77.2812 58.6615 76.8646 57.9531 76.0312C57.2448 75.1979 56.8906 74.099 56.8906 72.7344ZM58.1406 72.2656H63.1719C63.1719 71.4427 62.9479 70.75 62.5 70.1875C62.0521 69.6146 61.4531 69.3281 60.7031 69.3281C59.9427 69.3281 59.3281 69.6198 58.8594 70.2031C58.401 70.7865 58.1615 71.474 58.1406 72.2656ZM66.4469 77V68.5938H67.6344V70.0312H67.65C67.775 69.6146 68.0823 69.224 68.5719 68.8594C69.0615 68.4948 69.6448 68.3125 70.3219 68.3125C71.1031 68.3125 71.7438 68.5573 72.2438 69.0469C72.7542 69.5365 73.0094 70.375 73.0094 71.5625V77H71.7906V71.7656C71.7906 70.1406 71.2073 69.3281 70.0406 69.3281C69.3948 69.3281 68.8375 69.5885 68.3688 70.1094C67.9 70.6302 67.6656 71.2552 67.6656 71.9844V77H66.4469ZM75.0031 72.7969C75.0031 71.4635 75.3417 70.3854 76.0187 69.5625C76.6958 68.7292 77.6073 68.3125 78.7531 68.3125C79.5031 68.3125 80.1437 68.5312 80.675 68.9688C81.2167 69.3958 81.576 69.9062 81.7531 70.5L80.7219 70.7969C80.5656 70.3802 80.3104 70.0312 79.9562 69.75C79.6125 69.4688 79.2115 69.3281 78.7531 69.3281C77.9823 69.3281 77.3677 69.6562 76.9094 70.3125C76.451 70.9688 76.2219 71.7969 76.2219 72.7969C76.2219 73.8594 76.4615 74.7031 76.9406 75.3281C77.4198 75.9531 78.024 76.2656 78.7531 76.2656C79.2427 76.2656 79.6854 76.1094 80.0812 75.7969C80.4875 75.474 80.774 75.1042 80.9406 74.6875L81.9719 75.0156C81.7531 75.6406 81.3521 76.1771 80.7687 76.625C80.1958 77.0625 79.524 77.2812 78.7531 77.2812C77.6385 77.2812 76.7323 76.875 76.0344 76.0625C75.3469 75.25 75.0031 74.1615 75.0031 72.7969ZM83.8719 66.7031V65.125H85.4031V66.7031H83.8719ZM84.0594 77V68.5938H85.2469V77H84.0594ZM88.8187 74.8438C88.8187 75.2396 88.9854 75.5781 89.3187 75.8594C89.6521 76.1302 90.1104 76.2656 90.6937 76.2656C91.4333 76.2656 92.0635 76.026 92.5844 75.5469C93.1156 75.0677 93.3812 74.4583 93.3812 73.7188V72.5469C92.9229 72.6615 92.1937 72.7969 91.1937 72.9531C90.3812 73.099 89.7823 73.3229 89.3969 73.625C89.0115 73.9271 88.8187 74.3333 88.8187 74.8438ZM87.6 74.9375C87.6 73.375 88.8083 72.4062 91.225 72.0312C92.3083 71.8542 93.0271 71.7083 93.3812 71.5938V71.1094C93.3812 70.5885 93.1937 70.1562 92.8187 69.8125C92.4437 69.4688 91.9125 69.2969 91.225 69.2969C90.725 69.2969 90.2406 69.4167 89.7719 69.6562C89.3135 69.8854 88.9229 70.1979 88.6 70.5938L87.8187 69.9375C88.2354 69.4583 88.7354 69.0677 89.3187 68.7656C89.9125 68.4635 90.5375 68.3125 91.1937 68.3125C93.4437 68.3125 94.5687 69.4115 94.5687 71.6094V77H93.4125V75.625C93.2458 76.0729 92.9021 76.4635 92.3812 76.7969C91.8604 77.1198 91.2458 77.2812 90.5375 77.2812C89.6104 77.2812 88.8865 77.0625 88.3656 76.625C87.8552 76.1875 87.6 75.625 87.6 74.9375ZM96.4531 75.3438L97.3594 74.8125C97.974 75.7812 98.8073 76.2656 99.8594 76.2656C100.495 76.2656 101 76.151 101.375 75.9219C101.76 75.6927 101.953 75.3594 101.953 74.9219C101.953 74.7344 101.906 74.5677 101.812 74.4219C101.719 74.2656 101.615 74.1406 101.5 74.0469C101.396 73.9427 101.203 73.8333 100.922 73.7188C100.641 73.5938 100.406 73.5052 100.219 73.4531C100.042 73.3906 99.7448 73.2917 99.3281 73.1562C98.9635 73.0417 98.651 72.9271 98.3906 72.8125C98.1302 72.6979 97.8594 72.5469 97.5781 72.3594C97.2969 72.1615 97.0781 71.9219 96.9219 71.6406C96.776 71.3594 96.7031 71.0365 96.7031 70.6719C96.7031 69.974 96.9844 69.4062 97.5469 68.9688C98.1094 68.5312 98.8802 68.3125 99.8594 68.3125C100.547 68.3125 101.177 68.4948 101.75 68.8594C102.323 69.224 102.734 69.651 102.984 70.1406L102.172 70.6719C101.953 70.3073 101.635 69.9948 101.219 69.7344C100.812 69.4635 100.359 69.3281 99.8594 69.3281C99.224 69.3281 98.7396 69.4531 98.4062 69.7031C98.0833 69.9427 97.9219 70.2708 97.9219 70.6875C97.9219 70.9271 97.9844 71.1458 98.1094 71.3438C98.2344 71.5312 98.4219 71.6979 98.6719 71.8438C98.9323 71.9792 99.1667 72.0885 99.375 72.1719C99.5938 72.2448 99.8802 72.3385 100.234 72.4531C100.536 72.5469 100.802 72.6354 101.031 72.7188C101.271 72.8021 101.531 72.9167 101.812 73.0625C102.094 73.2083 102.328 73.3646 102.516 73.5312C102.703 73.6875 102.859 73.8906 102.984 74.1406C103.109 74.3802 103.172 74.6406 103.172 74.9219C103.172 75.5885 102.875 76.151 102.281 76.6094C101.698 77.0573 100.891 77.2812 99.8594 77.2812C99.1094 77.2812 98.4427 77.1146 97.8594 76.7812C97.276 76.4375 96.8073 75.9583 96.4531 75.3438Z" fill="black" fill-opacity="0.6"/>
</svg>
