<svg width="263" height="225" viewBox="0 0 263 225" fill="none" xmlns="http://www.w3.org/2000/svg">
<path d="M17.625 117.5V105.797H19.0625L23.375 113.266L24.7812 115.734H24.875C24.75 114.766 24.6875 113.661 24.6875 112.422V105.797H25.9375V117.5H24.5L20.1719 109.984L18.7812 107.578H18.7188C18.8229 108.62 18.875 109.719 18.875 110.875V117.5H17.625ZM29.6187 113.297C29.6187 114.359 29.8635 115.203 30.3531 115.828C30.8427 116.453 31.4521 116.766 32.1812 116.766C32.9 116.766 33.5042 116.453 33.9937 115.828C34.4937 115.203 34.7437 114.359 34.7437 113.297C34.7437 112.214 34.4937 111.365 33.9937 110.75C33.4937 110.135 32.8896 109.828 32.1812 109.828C31.4625 109.828 30.8531 110.135 30.3531 110.75C29.8635 111.365 29.6187 112.214 29.6187 113.297ZM28.4 113.297C28.4 112.016 28.7281 110.948 29.3844 110.094C30.051 109.24 30.9833 108.812 32.1812 108.812C33.3687 108.812 34.2958 109.24 34.9625 110.094C35.6292 110.948 35.9625 112.016 35.9625 113.297C35.9625 113.839 35.8896 114.365 35.7437 114.875C35.6083 115.385 35.3948 115.865 35.1031 116.312C34.8219 116.75 34.426 117.104 33.9156 117.375C33.4156 117.646 32.8375 117.781 32.1812 117.781C31.5354 117.781 30.9573 117.651 30.4469 117.391C29.9469 117.12 29.551 116.766 29.2594 116.328C28.9781 115.88 28.7646 115.401 28.6187 114.891C28.4729 114.38 28.4 113.849 28.4 113.297ZM37.1125 110.109V109.094H38.5812V106.406H39.8V109.094H42.0187V110.109H39.8V115.031C39.8 115.552 39.899 115.922 40.0969 116.141C40.2948 116.359 40.6125 116.469 41.05 116.469H42.0187V117.5H40.8937C39.3521 117.5 38.5812 116.714 38.5812 115.141V110.109H37.1125ZM44.5281 115.344C44.5281 115.74 44.6948 116.078 45.0281 116.359C45.3615 116.63 45.8198 116.766 46.4031 116.766C47.1427 116.766 47.7729 116.526 48.2938 116.047C48.825 115.568 49.0906 114.958 49.0906 114.219V113.047C48.6323 113.161 47.9031 113.297 46.9031 113.453C46.0906 113.599 45.4917 113.823 45.1063 114.125C44.7208 114.427 44.5281 114.833 44.5281 115.344ZM43.3094 115.438C43.3094 113.875 44.5177 112.906 46.9344 112.531C48.0177 112.354 48.7365 112.208 49.0906 112.094V111.609C49.0906 111.089 48.9031 110.656 48.5281 110.312C48.1531 109.969 47.6219 109.797 46.9344 109.797C46.4344 109.797 45.95 109.917 45.4813 110.156C45.0229 110.385 44.6323 110.698 44.3094 111.094L43.5281 110.438C43.9448 109.958 44.4448 109.568 45.0281 109.266C45.6219 108.964 46.2469 108.812 46.9031 108.812C49.1531 108.812 50.2781 109.911 50.2781 112.109V117.5H49.1219V116.125C48.9552 116.573 48.6115 116.964 48.0906 117.297C47.5698 117.62 46.9552 117.781 46.2469 117.781C45.3198 117.781 44.5958 117.562 44.075 117.125C43.5646 116.688 43.3094 116.125 43.3094 115.438ZM56.4688 111.656C56.4688 109.75 56.9323 108.25 57.8594 107.156C58.7865 106.062 59.9896 105.516 61.4688 105.516C62.3854 105.516 63.1615 105.771 63.7969 106.281C64.4427 106.781 64.9271 107.38 65.25 108.078L64.1875 108.453C63.4896 107.203 62.5729 106.578 61.4375 106.578C60.3125 106.578 59.4167 107.042 58.75 107.969C58.0833 108.885 57.75 110.115 57.75 111.656C57.75 113.219 58.0885 114.453 58.7656 115.359C59.4427 116.255 60.3333 116.703 61.4375 116.703C62.1354 116.703 62.7448 116.51 63.2656 116.125C63.7865 115.729 64.1771 115.245 64.4375 114.672L65.5625 115.031C65.2083 115.792 64.6927 116.443 64.0156 116.984C63.3385 117.516 62.4896 117.781 61.4688 117.781C60 117.781 58.7969 117.24 57.8594 116.156C56.9323 115.062 56.4688 113.562 56.4688 111.656ZM68.0563 113.297C68.0563 114.359 68.301 115.203 68.7906 115.828C69.2802 116.453 69.8896 116.766 70.6188 116.766C71.3375 116.766 71.9417 116.453 72.4313 115.828C72.9313 115.203 73.1813 114.359 73.1813 113.297C73.1813 112.214 72.9313 111.365 72.4313 110.75C71.9313 110.135 71.3271 109.828 70.6188 109.828C69.9 109.828 69.2906 110.135 68.7906 110.75C68.301 111.365 68.0563 112.214 68.0563 113.297ZM66.8375 113.297C66.8375 112.016 67.1656 110.948 67.8219 110.094C68.4885 109.24 69.4208 108.812 70.6188 108.812C71.8063 108.812 72.7333 109.24 73.4 110.094C74.0667 110.948 74.4 112.016 74.4 113.297C74.4 113.839 74.3271 114.365 74.1813 114.875C74.0458 115.385 73.8323 115.865 73.5406 116.312C73.2594 116.75 72.8635 117.104 72.3531 117.375C71.8531 117.646 71.275 117.781 70.6188 117.781C69.9729 117.781 69.3948 117.651 68.8844 117.391C68.3844 117.12 67.9885 116.766 67.6969 116.328C67.4156 115.88 67.2021 115.401 67.0563 114.891C66.9104 114.38 66.8375 113.849 66.8375 113.297ZM76.4875 117.5V109.094H77.675V110.359C77.8208 109.974 78.0969 109.62 78.5031 109.297C78.9094 108.974 79.425 108.812 80.05 108.812C80.6646 108.812 81.1333 108.99 81.4562 109.344C81.7792 109.688 82.0292 110.135 82.2062 110.688C82.2583 110.552 82.3417 110.396 82.4562 110.219C82.5708 110.042 82.7323 109.839 82.9406 109.609C83.149 109.38 83.425 109.193 83.7687 109.047C84.1229 108.891 84.5083 108.812 84.925 108.812C86.55 108.812 87.3625 109.896 87.3625 112.062V117.5H86.1437V112.156C86.1437 111.385 86.0396 110.807 85.8312 110.422C85.6229 110.026 85.2271 109.828 84.6437 109.828C84.0396 109.828 83.5344 110.083 83.1281 110.594C82.7219 111.094 82.5187 111.729 82.5187 112.5V117.5H81.3312V112.141C81.3312 110.599 80.8208 109.828 79.8 109.828C79.1646 109.828 78.6542 110.068 78.2687 110.547C77.8937 111.026 77.7062 111.651 77.7062 112.422V117.5H76.4875ZM89.825 114.547V109.094H91.0437V114.297C91.0437 115.943 91.6479 116.766 92.8562 116.766C93.5958 116.766 94.1583 116.479 94.5437 115.906C94.9396 115.333 95.1375 114.656 95.1375 113.875V109.094H96.325V117.5H95.1687V116.141C95.0854 116.484 94.825 116.844 94.3875 117.219C93.9604 117.594 93.3562 117.781 92.575 117.781C91.7729 117.781 91.1115 117.51 90.5906 116.969C90.0802 116.417 89.825 115.609 89.825 114.547ZM92.0125 107.531L93.7781 104.797H95.3562L93.075 107.531H92.0125ZM98.9906 117.5V109.094H100.178V110.531H100.194C100.319 110.115 100.626 109.724 101.116 109.359C101.605 108.995 102.189 108.812 102.866 108.812C103.647 108.812 104.287 109.057 104.787 109.547C105.298 110.036 105.553 110.875 105.553 112.062V117.5H104.334V112.266C104.334 110.641 103.751 109.828 102.584 109.828C101.939 109.828 101.381 110.089 100.912 110.609C100.444 111.13 100.209 111.755 100.209 112.484V117.5H98.9906Z" fill="black" fill-opacity="0.6"/>
</svg>
