<svg width="263" height="59" viewBox="0 0 263 59" fill="none" xmlns="http://www.w3.org/2000/svg">
<path d="M16.1875 23.8594V22.7969H24.5625V23.8594H21V34.5H19.75V23.8594H16.1875ZM26.2437 24.2031V22.625H27.775V24.2031H26.2437ZM26.4312 34.5V26.0938H27.6187V34.5H26.4312ZM31.8469 30.2812C31.8469 31.3229 32.0604 32.1667 32.4875 32.8125C32.9146 33.4479 33.5031 33.7656 34.2531 33.7656C34.9615 33.7656 35.55 33.4531 36.0188 32.8281C36.4875 32.2031 36.7219 31.3542 36.7219 30.2812C36.7219 29.2708 36.4979 28.4427 36.05 27.7969C35.6125 27.151 35.0135 26.8281 34.2531 26.8281C33.5448 26.8281 32.9667 27.1562 32.5188 27.8125C32.0708 28.4583 31.8469 29.2812 31.8469 30.2812ZM30.6594 38.1719V26.0938H31.8156V27.6094C32.0552 27.0677 32.399 26.6354 32.8469 26.3125C33.3052 25.9792 33.826 25.8125 34.4094 25.8125C35.4302 25.8125 36.274 26.2188 36.9406 27.0312C37.6073 27.8438 37.9406 28.9271 37.9406 30.2812C37.9406 31.7292 37.5917 32.8438 36.8938 33.625C36.1958 34.3958 35.3677 34.7812 34.4094 34.7812C33.7844 34.7812 33.2531 34.6198 32.8156 34.2969C32.3781 33.9635 32.0552 33.5469 31.8469 33.0469V38.1719H30.6594ZM40.6844 30.2969C40.6844 31.3594 40.9292 32.2031 41.4188 32.8281C41.9083 33.4531 42.5177 33.7656 43.2469 33.7656C43.9656 33.7656 44.5698 33.4531 45.0594 32.8281C45.5594 32.2031 45.8094 31.3594 45.8094 30.2969C45.8094 29.2135 45.5594 28.3646 45.0594 27.75C44.5594 27.1354 43.9552 26.8281 43.2469 26.8281C42.5281 26.8281 41.9188 27.1354 41.4188 27.75C40.9292 28.3646 40.6844 29.2135 40.6844 30.2969ZM39.4656 30.2969C39.4656 29.0156 39.7938 27.9479 40.45 27.0938C41.1167 26.2396 42.049 25.8125 43.2469 25.8125C44.4344 25.8125 45.3615 26.2396 46.0281 27.0938C46.6948 27.9479 47.0281 29.0156 47.0281 30.2969C47.0281 30.8385 46.9552 31.3646 46.8094 31.875C46.674 32.3854 46.4604 32.8646 46.1688 33.3125C45.8875 33.75 45.4917 34.1042 44.9813 34.375C44.4813 34.6458 43.9031 34.7812 43.2469 34.7812C42.601 34.7812 42.0229 34.651 41.5125 34.3906C41.0125 34.1198 40.6167 33.7656 40.325 33.3281C40.0438 32.8802 39.8302 32.401 39.6844 31.8906C39.5385 31.3802 39.4656 30.849 39.4656 30.2969ZM53.2969 24.2031V22.625H54.8281V24.2031H53.2969ZM53.4844 34.5V26.0938H54.6719V34.5H53.4844ZM57.6188 34.5V26.0938H58.8063V27.5312H58.8219C58.9469 27.1146 59.2542 26.724 59.7438 26.3594C60.2333 25.9948 60.8167 25.8125 61.4938 25.8125C62.275 25.8125 62.9156 26.0573 63.4156 26.5469C63.926 27.0365 64.1813 27.875 64.1813 29.0625V34.5H62.9625V29.2656C62.9625 27.6406 62.3792 26.8281 61.2125 26.8281C60.5667 26.8281 60.0094 27.0885 59.5406 27.6094C59.0719 28.1302 58.8375 28.7552 58.8375 29.4844V34.5H57.6188ZM66.175 30.2969C66.175 28.9635 66.5135 27.8854 67.1906 27.0625C67.8677 26.2292 68.7792 25.8125 69.925 25.8125C70.675 25.8125 71.3156 26.0312 71.8469 26.4688C72.3885 26.8958 72.7479 27.4062 72.925 28L71.8937 28.2969C71.7375 27.8802 71.4823 27.5312 71.1281 27.25C70.7844 26.9688 70.3833 26.8281 69.925 26.8281C69.1542 26.8281 68.5396 27.1562 68.0812 27.8125C67.6229 28.4688 67.3937 29.2969 67.3937 30.2969C67.3937 31.3594 67.6333 32.2031 68.1125 32.8281C68.5917 33.4531 69.1958 33.7656 69.925 33.7656C70.4146 33.7656 70.8573 33.6094 71.2531 33.2969C71.6594 32.974 71.9458 32.6042 72.1125 32.1875L73.1437 32.5156C72.925 33.1406 72.524 33.6771 71.9406 34.125C71.3677 34.5625 70.6958 34.7812 69.925 34.7812C68.8104 34.7812 67.9042 34.375 67.2062 33.5625C66.5187 32.75 66.175 31.6615 66.175 30.2969ZM75.0438 24.2031V22.625H76.575V24.2031H75.0438ZM75.2313 34.5V26.0938H76.4188V34.5H75.2313ZM78.8031 30.2812C78.8031 28.8958 79.1365 27.8073 79.8031 27.0156C80.4698 26.2135 81.3135 25.8125 82.3344 25.8125C82.949 25.8125 83.4802 25.9896 83.9281 26.3438C84.3865 26.6979 84.7094 27.1042 84.8969 27.5625V22.3594H86.0844V34.5H84.9281V32.9844C84.7094 33.5052 84.3708 33.9375 83.9125 34.2812C83.4646 34.6146 82.9385 34.7812 82.3344 34.7812C81.9073 34.7812 81.4906 34.6927 81.0844 34.5156C80.6885 34.349 80.3135 34.099 79.9594 33.7656C79.6156 33.4219 79.3344 32.9531 79.1156 32.3594C78.9073 31.7552 78.8031 31.0625 78.8031 30.2812ZM80.0219 30.2812C80.0219 31.3333 80.251 32.1771 80.7094 32.8125C81.1677 33.4479 81.7615 33.7656 82.4906 33.7656C83.1677 33.7656 83.7406 33.4531 84.2094 32.8281C84.6885 32.1927 84.9281 31.3438 84.9281 30.2812C84.9281 29.2292 84.6885 28.3906 84.2094 27.7656C83.7406 27.1406 83.1677 26.8281 82.4906 26.8281C81.751 26.8281 81.1521 27.1458 80.6937 27.7812C80.2458 28.4062 80.0219 29.2396 80.0219 30.2812ZM88.2656 30.2344C88.2656 28.9219 88.6198 27.8594 89.3281 27.0469C90.0365 26.224 90.9531 25.8125 92.0781 25.8125C93.224 25.8125 94.125 26.2135 94.7812 27.0156C95.4375 27.8073 95.7656 28.8229 95.7656 30.0625C95.7656 30.2083 95.7552 30.4167 95.7344 30.6875H89.4844C89.4844 31.5312 89.7188 32.2552 90.1875 32.8594C90.6562 33.4635 91.3073 33.7656 92.1406 33.7656C92.6823 33.7656 93.1615 33.6406 93.5781 33.3906C93.9948 33.1302 94.3177 32.7865 94.5469 32.3594L95.5781 32.6719C95.3177 33.2865 94.8958 33.7917 94.3125 34.1875C93.7292 34.5833 93.0052 34.7812 92.1406 34.7812C90.974 34.7812 90.0365 34.3646 89.3281 33.5312C88.6198 32.6979 88.2656 31.599 88.2656 30.2344ZM89.5156 29.7656H94.5469C94.5469 28.9427 94.3229 28.25 93.875 27.6875C93.4271 27.1146 92.8281 26.8281 92.0781 26.8281C91.3177 26.8281 90.7031 27.1198 90.2344 27.7031C89.776 28.2865 89.5365 28.974 89.5156 29.7656ZM97.8219 34.5V26.0938H99.0094V27.5312H99.025C99.15 27.1146 99.4573 26.724 99.9469 26.3594C100.436 25.9948 101.02 25.8125 101.697 25.8125C102.478 25.8125 103.119 26.0573 103.619 26.5469C104.129 27.0365 104.384 27.875 104.384 29.0625V34.5H103.166V29.2656C103.166 27.6406 102.582 26.8281 101.416 26.8281C100.77 26.8281 100.213 27.0885 99.7438 27.6094C99.275 28.1302 99.0406 28.7552 99.0406 29.4844V34.5H97.8219ZM105.925 27.1094V26.0938H107.394V23.4062H108.613V26.0938H110.831V27.1094H108.613V32.0312C108.613 32.5521 108.711 32.9219 108.909 33.1406C109.107 33.3594 109.425 33.4688 109.863 33.4688H110.831V34.5H109.706C108.165 34.5 107.394 33.7135 107.394 32.1406V27.1094H105.925ZM112.153 30.2344C112.153 28.9219 112.507 27.8594 113.216 27.0469C113.924 26.224 114.841 25.8125 115.966 25.8125C117.111 25.8125 118.012 26.2135 118.669 27.0156C119.325 27.8073 119.653 28.8229 119.653 30.0625C119.653 30.2083 119.643 30.4167 119.622 30.6875H113.372C113.372 31.5312 113.606 32.2552 114.075 32.8594C114.544 33.4635 115.195 33.7656 116.028 33.7656C116.57 33.7656 117.049 33.6406 117.466 33.3906C117.882 33.1302 118.205 32.7865 118.434 32.3594L119.466 32.6719C119.205 33.2865 118.783 33.7917 118.2 34.1875C117.617 34.5833 116.893 34.7812 116.028 34.7812C114.861 34.7812 113.924 34.3646 113.216 33.5312C112.507 32.6979 112.153 31.599 112.153 30.2344ZM113.403 29.7656H118.434C118.434 28.9427 118.21 28.25 117.762 27.6875C117.315 27.1146 116.716 26.8281 115.966 26.8281C115.205 26.8281 114.591 27.1198 114.122 27.7031C113.664 28.2865 113.424 28.974 113.403 29.7656Z" fill="black" fill-opacity="0.6"/>
<path d="M230 27.5L235 32.5L240 27.5H230Z" fill="black"/>
</svg>
