<svg width="220" height="59" viewBox="0 0 220 59" fill="none" xmlns="http://www.w3.org/2000/svg">
<path d="M17.625 34.5V22.7969H22.0312C23.1667 22.7969 24.0625 23.1094 24.7188 23.7344C25.3854 24.3594 25.7188 25.1875 25.7188 26.2188C25.7188 27.2812 25.3802 28.1198 24.7031 28.7344C24.026 29.349 23.1354 29.6562 22.0312 29.6562H18.875V34.5H17.625ZM18.875 28.6094H21.8438C22.6667 28.6094 23.3021 28.4115 23.75 28.0156C24.2083 27.6094 24.4375 27.0104 24.4375 26.2188C24.4375 25.4479 24.2083 24.8646 23.75 24.4688C23.3021 24.0625 22.6562 23.8594 21.8125 23.8594H18.875V28.6094ZM27.7437 34.5V26.0938H28.9V27.3125C29.0667 26.9375 29.3427 26.5938 29.7281 26.2812C30.1135 25.9688 30.6083 25.8125 31.2125 25.8125C31.6604 25.8125 32.0562 25.8854 32.4 26.0312V27.125C32.025 26.9792 31.6292 26.9062 31.2125 26.9062C30.5042 26.9062 29.9521 27.1719 29.5562 27.7031C29.1604 28.2344 28.9625 28.9375 28.9625 29.8125V34.5H27.7437ZM34.4094 30.2969C34.4094 31.3594 34.6542 32.2031 35.1437 32.8281C35.6333 33.4531 36.2427 33.7656 36.9719 33.7656C37.6906 33.7656 38.2948 33.4531 38.7844 32.8281C39.2844 32.2031 39.5344 31.3594 39.5344 30.2969C39.5344 29.2135 39.2844 28.3646 38.7844 27.75C38.2844 27.1354 37.6802 26.8281 36.9719 26.8281C36.2531 26.8281 35.6437 27.1354 35.1437 27.75C34.6542 28.3646 34.4094 29.2135 34.4094 30.2969ZM33.1906 30.2969C33.1906 29.0156 33.5187 27.9479 34.175 27.0938C34.8417 26.2396 35.774 25.8125 36.9719 25.8125C38.1594 25.8125 39.0865 26.2396 39.7531 27.0938C40.4198 27.9479 40.7531 29.0156 40.7531 30.2969C40.7531 30.8385 40.6802 31.3646 40.5344 31.875C40.399 32.3854 40.1854 32.8646 39.8937 33.3125C39.6125 33.75 39.2167 34.1042 38.7062 34.375C38.2062 34.6458 37.6281 34.7812 36.9719 34.7812C36.326 34.7812 35.7479 34.651 35.2375 34.3906C34.7375 34.1198 34.3417 33.7656 34.05 33.3281C33.7687 32.8802 33.5552 32.401 33.4094 31.8906C33.2635 31.3802 33.1906 30.849 33.1906 30.2969ZM42.2781 30.2969C42.2781 28.9635 42.6167 27.8854 43.2938 27.0625C43.9708 26.2292 44.8823 25.8125 46.0281 25.8125C46.7781 25.8125 47.4188 26.0312 47.95 26.4688C48.4917 26.8958 48.851 27.4062 49.0281 28L47.9969 28.2969C47.8406 27.8802 47.5854 27.5312 47.2313 27.25C46.8875 26.9688 46.4865 26.8281 46.0281 26.8281C45.2573 26.8281 44.6427 27.1562 44.1844 27.8125C43.726 28.4688 43.4969 29.2969 43.4969 30.2969C43.4969 31.3594 43.7365 32.2031 44.2156 32.8281C44.6948 33.4531 45.299 33.7656 46.0281 33.7656C46.5177 33.7656 46.9604 33.6094 47.3563 33.2969C47.7625 32.974 48.049 32.6042 48.2156 32.1875L49.2469 32.5156C49.0281 33.1406 48.6271 33.6771 48.0438 34.125C47.4708 34.5625 46.799 34.7812 46.0281 34.7812C44.9135 34.7812 44.0073 34.375 43.3094 33.5625C42.6219 32.75 42.2781 31.6615 42.2781 30.2969ZM50.4594 30.2344C50.4594 28.9219 50.8135 27.8594 51.5219 27.0469C52.2302 26.224 53.1469 25.8125 54.2719 25.8125C55.4177 25.8125 56.3187 26.2135 56.975 27.0156C57.6312 27.8073 57.9594 28.8229 57.9594 30.0625C57.9594 30.2083 57.949 30.4167 57.9281 30.6875H51.6781C51.6781 31.5312 51.9125 32.2552 52.3812 32.8594C52.85 33.4635 53.501 33.7656 54.3344 33.7656C54.876 33.7656 55.3552 33.6406 55.7719 33.3906C56.1885 33.1302 56.5115 32.7865 56.7406 32.3594L57.7719 32.6719C57.5115 33.2865 57.0896 33.7917 56.5062 34.1875C55.9229 34.5833 55.199 34.7812 54.3344 34.7812C53.1677 34.7812 52.2302 34.3646 51.5219 33.5312C50.8135 32.6979 50.4594 31.599 50.4594 30.2344ZM51.7094 29.7656H56.7406C56.7406 28.9427 56.5167 28.25 56.0687 27.6875C55.6208 27.1146 55.0219 26.8281 54.2719 26.8281C53.5115 26.8281 52.8969 27.1198 52.4281 27.7031C51.9698 28.2865 51.7302 28.974 51.7094 29.7656ZM59.4531 30.2812C59.4531 28.8958 59.7865 27.8073 60.4531 27.0156C61.1198 26.2135 61.9635 25.8125 62.9844 25.8125C63.599 25.8125 64.1302 25.9896 64.5781 26.3438C65.0365 26.6979 65.3594 27.1042 65.5469 27.5625V22.3594H66.7344V34.5H65.5781V32.9844C65.3594 33.5052 65.0208 33.9375 64.5625 34.2812C64.1146 34.6146 63.5885 34.7812 62.9844 34.7812C62.5573 34.7812 62.1406 34.6927 61.7344 34.5156C61.3385 34.349 60.9635 34.099 60.6094 33.7656C60.2656 33.4219 59.9844 32.9531 59.7656 32.3594C59.5573 31.7552 59.4531 31.0625 59.4531 30.2812ZM60.6719 30.2812C60.6719 31.3333 60.901 32.1771 61.3594 32.8125C61.8177 33.4479 62.4115 33.7656 63.1406 33.7656C63.8177 33.7656 64.3906 33.4531 64.8594 32.8281C65.3385 32.1927 65.5781 31.3438 65.5781 30.2812C65.5781 29.2292 65.3385 28.3906 64.8594 27.7656C64.3906 27.1406 63.8177 26.8281 63.1406 26.8281C62.401 26.8281 61.8021 27.1458 61.3438 27.7812C60.8958 28.4062 60.6719 29.2396 60.6719 30.2812ZM68.9156 30.2344C68.9156 28.9219 69.2698 27.8594 69.9781 27.0469C70.6865 26.224 71.6031 25.8125 72.7281 25.8125C73.874 25.8125 74.775 26.2135 75.4313 27.0156C76.0875 27.8073 76.4156 28.8229 76.4156 30.0625C76.4156 30.2083 76.4052 30.4167 76.3844 30.6875H70.1344C70.1344 31.5312 70.3688 32.2552 70.8375 32.8594C71.3063 33.4635 71.9573 33.7656 72.7906 33.7656C73.3323 33.7656 73.8115 33.6406 74.2281 33.3906C74.6448 33.1302 74.9677 32.7865 75.1969 32.3594L76.2281 32.6719C75.9677 33.2865 75.5458 33.7917 74.9625 34.1875C74.3792 34.5833 73.6552 34.7812 72.7906 34.7812C71.624 34.7812 70.6865 34.3646 69.9781 33.5312C69.2698 32.6979 68.9156 31.599 68.9156 30.2344ZM70.1656 29.7656H75.1969C75.1969 28.9427 74.9729 28.25 74.525 27.6875C74.0771 27.1146 73.4781 26.8281 72.7281 26.8281C71.9677 26.8281 71.3531 27.1198 70.8844 27.7031C70.426 28.2865 70.1865 28.974 70.1656 29.7656ZM78.4719 34.5V26.0938H79.6594V27.5312H79.675C79.8 27.1146 80.1073 26.724 80.5969 26.3594C81.0865 25.9948 81.6698 25.8125 82.3469 25.8125C83.1281 25.8125 83.7687 26.0573 84.2687 26.5469C84.7792 27.0365 85.0344 27.875 85.0344 29.0625V34.5H83.8156V29.2656C83.8156 27.6406 83.2323 26.8281 82.0656 26.8281C81.4198 26.8281 80.8625 27.0885 80.3937 27.6094C79.925 28.1302 79.6906 28.7552 79.6906 29.4844V34.5H78.4719ZM87.0281 30.2969C87.0281 28.9635 87.3667 27.8854 88.0437 27.0625C88.7208 26.2292 89.6323 25.8125 90.7781 25.8125C91.5281 25.8125 92.1687 26.0312 92.7 26.4688C93.2417 26.8958 93.601 27.4062 93.7781 28L92.7469 28.2969C92.5906 27.8802 92.3354 27.5312 91.9812 27.25C91.6375 26.9688 91.2365 26.8281 90.7781 26.8281C90.0073 26.8281 89.3927 27.1562 88.9344 27.8125C88.476 28.4688 88.2469 29.2969 88.2469 30.2969C88.2469 31.3594 88.4865 32.2031 88.9656 32.8281C89.4448 33.4531 90.049 33.7656 90.7781 33.7656C91.2677 33.7656 91.7104 33.6094 92.1062 33.2969C92.5125 32.974 92.799 32.6042 92.9656 32.1875L93.9969 32.5156C93.7781 33.1406 93.3771 33.6771 92.7937 34.125C92.2208 34.5625 91.549 34.7812 90.7781 34.7812C89.6635 34.7812 88.7573 34.375 88.0594 33.5625C87.3719 32.75 87.0281 31.6615 87.0281 30.2969ZM95.8969 24.2031V22.625H97.4281V24.2031H95.8969ZM96.0844 34.5V26.0938H97.2719V34.5H96.0844ZM100.844 32.3438C100.844 32.7396 101.01 33.0781 101.344 33.3594C101.677 33.6302 102.135 33.7656 102.719 33.7656C103.458 33.7656 104.089 33.526 104.609 33.0469C105.141 32.5677 105.406 31.9583 105.406 31.2188V30.0469C104.948 30.1615 104.219 30.2969 103.219 30.4531C102.406 30.599 101.807 30.8229 101.422 31.125C101.036 31.4271 100.844 31.8333 100.844 32.3438ZM99.625 32.4375C99.625 30.875 100.833 29.9062 103.25 29.5312C104.333 29.3542 105.052 29.2083 105.406 29.0938V28.6094C105.406 28.0885 105.219 27.6562 104.844 27.3125C104.469 26.9688 103.938 26.7969 103.25 26.7969C102.75 26.7969 102.266 26.9167 101.797 27.1562C101.339 27.3854 100.948 27.6979 100.625 28.0938L99.8438 27.4375C100.26 26.9583 100.76 26.5677 101.344 26.2656C101.938 25.9635 102.562 25.8125 103.219 25.8125C105.469 25.8125 106.594 26.9115 106.594 29.1094V34.5H105.438V33.125C105.271 33.5729 104.927 33.9635 104.406 34.2969C103.885 34.6198 103.271 34.7812 102.562 34.7812C101.635 34.7812 100.911 34.5625 100.391 34.125C99.8802 33.6875 99.625 33.125 99.625 32.4375ZM112.659 30.2812C112.659 28.8958 112.993 27.8073 113.659 27.0156C114.326 26.2135 115.17 25.8125 116.191 25.8125C116.805 25.8125 117.336 25.9896 117.784 26.3438C118.243 26.6979 118.566 27.1042 118.753 27.5625V22.3594H119.941V34.5H118.784V32.9844C118.566 33.5052 118.227 33.9375 117.769 34.2812C117.321 34.6146 116.795 34.7812 116.191 34.7812C115.764 34.7812 115.347 34.6927 114.941 34.5156C114.545 34.349 114.17 34.099 113.816 33.7656C113.472 33.4219 113.191 32.9531 112.972 32.3594C112.764 31.7552 112.659 31.0625 112.659 30.2812ZM113.878 30.2812C113.878 31.3333 114.107 32.1771 114.566 32.8125C115.024 33.4479 115.618 33.7656 116.347 33.7656C117.024 33.7656 117.597 33.4531 118.066 32.8281C118.545 32.1927 118.784 31.3438 118.784 30.2812C118.784 29.2292 118.545 28.3906 118.066 27.7656C117.597 27.1406 117.024 26.8281 116.347 26.8281C115.607 26.8281 115.008 27.1458 114.55 27.7812C114.102 28.4062 113.878 29.2396 113.878 30.2812ZM122.122 30.2344C122.122 28.9219 122.476 27.8594 123.184 27.0469C123.893 26.224 124.809 25.8125 125.934 25.8125C127.08 25.8125 127.981 26.2135 128.637 27.0156C129.294 27.8073 129.622 28.8229 129.622 30.0625C129.622 30.2083 129.611 30.4167 129.591 30.6875H123.341C123.341 31.5312 123.575 32.2552 124.044 32.8594C124.512 33.4635 125.164 33.7656 125.997 33.7656C126.539 33.7656 127.018 33.6406 127.434 33.3906C127.851 33.1302 128.174 32.7865 128.403 32.3594L129.434 32.6719C129.174 33.2865 128.752 33.7917 128.169 34.1875C127.585 34.5833 126.861 34.7812 125.997 34.7812C124.83 34.7812 123.893 34.3646 123.184 33.5312C122.476 32.6979 122.122 31.599 122.122 30.2344ZM123.372 29.7656H128.403C128.403 28.9427 128.179 28.25 127.731 27.6875C127.283 27.1146 126.684 26.8281 125.934 26.8281C125.174 26.8281 124.559 27.1198 124.091 27.7031C123.632 28.2865 123.393 28.974 123.372 29.7656ZM135.922 34.5V22.3594H137.109V34.5H135.922ZM140.572 32.3438C140.572 32.7396 140.739 33.0781 141.072 33.3594C141.405 33.6302 141.864 33.7656 142.447 33.7656C143.186 33.7656 143.817 33.526 144.338 33.0469C144.869 32.5677 145.134 31.9583 145.134 31.2188V30.0469C144.676 30.1615 143.947 30.2969 142.947 30.4531C142.134 30.599 141.535 30.8229 141.15 31.125C140.765 31.4271 140.572 31.8333 140.572 32.3438ZM139.353 32.4375C139.353 30.875 140.561 29.9062 142.978 29.5312C144.061 29.3542 144.78 29.2083 145.134 29.0938V28.6094C145.134 28.0885 144.947 27.6562 144.572 27.3125C144.197 26.9688 143.666 26.7969 142.978 26.7969C142.478 26.7969 141.994 26.9167 141.525 27.1562C141.067 27.3854 140.676 27.6979 140.353 28.0938L139.572 27.4375C139.989 26.9583 140.489 26.5677 141.072 26.2656C141.666 25.9635 142.291 25.8125 142.947 25.8125C145.197 25.8125 146.322 26.9115 146.322 29.1094V34.5H145.166V33.125C144.999 33.5729 144.655 33.9635 144.134 34.2969C143.614 34.6198 142.999 34.7812 142.291 34.7812C141.364 34.7812 140.64 34.5625 140.119 34.125C139.608 33.6875 139.353 33.125 139.353 32.4375ZM153.137 34.5V22.3594H154.325V34.5H153.137ZM157.35 34.5V22.3594H158.538V34.5H157.35ZM162 32.3438C162 32.7396 162.167 33.0781 162.5 33.3594C162.833 33.6302 163.292 33.7656 163.875 33.7656C164.615 33.7656 165.245 33.526 165.766 33.0469C166.297 32.5677 166.562 31.9583 166.562 31.2188V30.0469C166.104 30.1615 165.375 30.2969 164.375 30.4531C163.562 30.599 162.964 30.8229 162.578 31.125C162.193 31.4271 162 31.8333 162 32.3438ZM160.781 32.4375C160.781 30.875 161.99 29.9062 164.406 29.5312C165.49 29.3542 166.208 29.2083 166.562 29.0938V28.6094C166.562 28.0885 166.375 27.6562 166 27.3125C165.625 26.9688 165.094 26.7969 164.406 26.7969C163.906 26.7969 163.422 26.9167 162.953 27.1562C162.495 27.3854 162.104 27.6979 161.781 28.0938L161 27.4375C161.417 26.9583 161.917 26.5677 162.5 26.2656C163.094 25.9635 163.719 25.8125 164.375 25.8125C166.625 25.8125 167.75 26.9115 167.75 29.1094V34.5H166.594V33.125C166.427 33.5729 166.083 33.9635 165.562 34.2969C165.042 34.6198 164.427 34.7812 163.719 34.7812C162.792 34.7812 162.068 34.5625 161.547 34.125C161.036 33.6875 160.781 33.125 160.781 32.4375ZM170.322 34.5V26.0938H171.509V27.3594C171.655 26.974 171.931 26.6198 172.337 26.2969C172.744 25.974 173.259 25.8125 173.884 25.8125C174.499 25.8125 174.968 25.9896 175.291 26.3438C175.614 26.6875 175.864 27.1354 176.041 27.6875C176.093 27.5521 176.176 27.3958 176.291 27.2188C176.405 27.0417 176.567 26.8385 176.775 26.6094C176.983 26.3802 177.259 26.1927 177.603 26.0469C177.957 25.8906 178.343 25.8125 178.759 25.8125C180.384 25.8125 181.197 26.8958 181.197 29.0625V34.5H179.978V29.1562C179.978 28.3854 179.874 27.8073 179.666 27.4219C179.457 27.026 179.061 26.8281 178.478 26.8281C177.874 26.8281 177.369 27.0833 176.962 27.5938C176.556 28.0938 176.353 28.7292 176.353 29.5V34.5H175.166V29.1406C175.166 27.599 174.655 26.8281 173.634 26.8281C172.999 26.8281 172.489 27.0677 172.103 27.5469C171.728 28.026 171.541 28.651 171.541 29.4219V34.5H170.322ZM184.378 32.3438C184.378 32.7396 184.545 33.0781 184.878 33.3594C185.211 33.6302 185.67 33.7656 186.253 33.7656C186.993 33.7656 187.623 33.526 188.144 33.0469C188.675 32.5677 188.941 31.9583 188.941 31.2188V30.0469C188.482 30.1615 187.753 30.2969 186.753 30.4531C185.941 30.599 185.342 30.8229 184.956 31.125C184.571 31.4271 184.378 31.8333 184.378 32.3438ZM183.159 32.4375C183.159 30.875 184.368 29.9062 186.784 29.5312C187.868 29.3542 188.586 29.2083 188.941 29.0938V28.6094C188.941 28.0885 188.753 27.6562 188.378 27.3125C188.003 26.9688 187.472 26.7969 186.784 26.7969C186.284 26.7969 185.8 26.9167 185.331 27.1562C184.873 27.3854 184.482 27.6979 184.159 28.0938L183.378 27.4375C183.795 26.9583 184.295 26.5677 184.878 26.2656C185.472 25.9635 186.097 25.8125 186.753 25.8125C189.003 25.8125 190.128 26.9115 190.128 29.1094V34.5H188.972V33.125C188.805 33.5729 188.461 33.9635 187.941 34.2969C187.42 34.6198 186.805 34.7812 186.097 34.7812C185.17 34.7812 184.446 34.5625 183.925 34.125C183.415 33.6875 183.159 33.125 183.159 32.4375ZM192.137 30.2812C192.137 28.8958 192.471 27.8073 193.137 27.0156C193.804 26.2135 194.648 25.8125 195.669 25.8125C196.283 25.8125 196.815 25.9896 197.262 26.3438C197.721 26.6979 198.044 27.1042 198.231 27.5625V22.3594H199.419V34.5H198.262V32.9844C198.044 33.5052 197.705 33.9375 197.247 34.2812C196.799 34.6146 196.273 34.7812 195.669 34.7812C195.242 34.7812 194.825 34.6927 194.419 34.5156C194.023 34.349 193.648 34.099 193.294 33.7656C192.95 33.4219 192.669 32.9531 192.45 32.3594C192.242 31.7552 192.137 31.0625 192.137 30.2812ZM193.356 30.2812C193.356 31.3333 193.585 32.1771 194.044 32.8125C194.502 33.4479 195.096 33.7656 195.825 33.7656C196.502 33.7656 197.075 33.4531 197.544 32.8281C198.023 32.1927 198.262 31.3438 198.262 30.2812C198.262 29.2292 198.023 28.3906 197.544 27.7656C197.075 27.1406 196.502 26.8281 195.825 26.8281C195.085 26.8281 194.486 27.1458 194.028 27.7812C193.58 28.4062 193.356 29.2396 193.356 30.2812ZM202.788 32.3438C202.788 32.7396 202.954 33.0781 203.288 33.3594C203.621 33.6302 204.079 33.7656 204.663 33.7656C205.402 33.7656 206.032 33.526 206.553 33.0469C207.084 32.5677 207.35 31.9583 207.35 31.2188V30.0469C206.892 30.1615 206.163 30.2969 205.163 30.4531C204.35 30.599 203.751 30.8229 203.366 31.125C202.98 31.4271 202.788 31.8333 202.788 32.3438ZM201.569 32.4375C201.569 30.875 202.777 29.9062 205.194 29.5312C206.277 29.3542 206.996 29.2083 207.35 29.0938V28.6094C207.35 28.0885 207.163 27.6562 206.788 27.3125C206.413 26.9688 205.881 26.7969 205.194 26.7969C204.694 26.7969 204.209 26.9167 203.741 27.1562C203.282 27.3854 202.892 27.6979 202.569 28.0938L201.788 27.4375C202.204 26.9583 202.704 26.5677 203.288 26.2656C203.881 25.9635 204.506 25.8125 205.163 25.8125C207.413 25.8125 208.538 26.9115 208.538 29.1094V34.5H207.381V33.125C207.215 33.5729 206.871 33.9635 206.35 34.2969C205.829 34.6198 205.215 34.7812 204.506 34.7812C203.579 34.7812 202.855 34.5625 202.334 34.125C201.824 33.6875 201.569 33.125 201.569 32.4375Z" fill="black" fill-opacity="0.6"/>
</svg>
