<svg width="263" height="59" viewBox="0 0 263 59" fill="none" xmlns="http://www.w3.org/2000/svg">
<path d="M17.625 34.5V22.7969H20.7812C22.4688 22.7969 23.7969 23.2969 24.7656 24.2969C25.7344 25.2865 26.2188 26.7396 26.2188 28.6562C26.2188 30.4792 25.75 31.9115 24.8125 32.9531C23.875 33.9844 22.5208 34.5 20.75 34.5H17.625ZM18.875 33.4375H20.5625C21.9167 33.4375 22.9844 33.0573 23.7656 32.2969C24.5469 31.526 24.9375 30.3125 24.9375 28.6562C24.9375 26.9792 24.5469 25.7604 23.7656 25C22.9844 24.2396 21.9271 23.8594 20.5938 23.8594H18.875V33.4375ZM28.4781 24.2031V22.625H30.0094V24.2031H28.4781ZM28.6656 34.5V26.0938H29.8531V34.5H28.6656ZM32.8 34.5V26.0938H33.9563V27.3125C34.1229 26.9375 34.399 26.5938 34.7844 26.2812C35.1698 25.9688 35.6646 25.8125 36.2688 25.8125C36.7167 25.8125 37.1125 25.8854 37.4563 26.0312V27.125C37.0813 26.9792 36.6854 26.9062 36.2688 26.9062C35.5604 26.9062 35.0083 27.1719 34.6125 27.7031C34.2167 28.2344 34.0188 28.9375 34.0188 29.8125V34.5H32.8ZM38.2469 30.2344C38.2469 28.9219 38.601 27.8594 39.3094 27.0469C40.0177 26.224 40.9344 25.8125 42.0594 25.8125C43.2052 25.8125 44.1063 26.2135 44.7625 27.0156C45.4188 27.8073 45.7469 28.8229 45.7469 30.0625C45.7469 30.2083 45.7365 30.4167 45.7156 30.6875H39.4656C39.4656 31.5312 39.7 32.2552 40.1688 32.8594C40.6375 33.4635 41.2885 33.7656 42.1219 33.7656C42.6635 33.7656 43.1427 33.6406 43.5594 33.3906C43.976 33.1302 44.299 32.7865 44.5281 32.3594L45.5594 32.6719C45.299 33.2865 44.8771 33.7917 44.2938 34.1875C43.7104 34.5833 42.9865 34.7812 42.1219 34.7812C40.9552 34.7812 40.0177 34.3646 39.3094 33.5312C38.601 32.6979 38.2469 31.599 38.2469 30.2344ZM39.4969 29.7656H44.5281C44.5281 28.9427 44.3042 28.25 43.8563 27.6875C43.4083 27.1146 42.8094 26.8281 42.0594 26.8281C41.299 26.8281 40.6844 27.1198 40.2156 27.7031C39.7573 28.2865 39.5177 28.974 39.4969 29.7656ZM47.2406 30.2969C47.2406 28.9635 47.5792 27.8854 48.2563 27.0625C48.9333 26.2292 49.8448 25.8125 50.9906 25.8125C51.7406 25.8125 52.3813 26.0312 52.9125 26.4688C53.4542 26.8958 53.8135 27.4062 53.9906 28L52.9594 28.2969C52.8031 27.8802 52.5479 27.5312 52.1938 27.25C51.85 26.9688 51.449 26.8281 50.9906 26.8281C50.2198 26.8281 49.6052 27.1562 49.1469 27.8125C48.6885 28.4688 48.4594 29.2969 48.4594 30.2969C48.4594 31.3594 48.699 32.2031 49.1781 32.8281C49.6573 33.4531 50.2615 33.7656 50.9906 33.7656C51.4802 33.7656 51.9229 33.6094 52.3188 33.2969C52.725 32.974 53.0115 32.6042 53.1781 32.1875L54.2094 32.5156C53.9906 33.1406 53.5896 33.6771 53.0063 34.125C52.4333 34.5625 51.7615 34.7812 50.9906 34.7812C49.876 34.7812 48.9698 34.375 48.2719 33.5625C47.5844 32.75 47.2406 31.6615 47.2406 30.2969ZM55.4219 30.2969C55.4219 28.9635 55.7604 27.8854 56.4375 27.0625C57.1146 26.2292 58.026 25.8125 59.1719 25.8125C59.9219 25.8125 60.5625 26.0312 61.0938 26.4688C61.6354 26.8958 61.9948 27.4062 62.1719 28L61.1406 28.2969C60.9844 27.8802 60.7292 27.5312 60.375 27.25C60.0312 26.9688 59.6302 26.8281 59.1719 26.8281C58.401 26.8281 57.7865 27.1562 57.3281 27.8125C56.8698 28.4688 56.6406 29.2969 56.6406 30.2969C56.6406 31.3594 56.8802 32.2031 57.3594 32.8281C57.8385 33.4531 58.4427 33.7656 59.1719 33.7656C59.6615 33.7656 60.1042 33.6094 60.5 33.2969C60.9062 32.974 61.1927 32.6042 61.3594 32.1875L62.3906 32.5156C62.1719 33.1406 61.7708 33.6771 61.1875 34.125C60.6146 34.5625 59.9427 34.7812 59.1719 34.7812C58.0573 34.7812 57.151 34.375 56.4531 33.5625C55.7656 32.75 55.4219 31.6615 55.4219 30.2969ZM64.2906 24.2031V22.625H65.8219V24.2031H64.2906ZM64.4781 34.5V26.0938H65.6656V34.5H64.4781ZM69.2687 30.2969C69.2687 31.3594 69.5135 32.2031 70.0031 32.8281C70.4927 33.4531 71.1021 33.7656 71.8312 33.7656C72.55 33.7656 73.1542 33.4531 73.6437 32.8281C74.1437 32.2031 74.3937 31.3594 74.3937 30.2969C74.3937 29.2135 74.1437 28.3646 73.6437 27.75C73.1437 27.1354 72.5396 26.8281 71.8312 26.8281C71.1125 26.8281 70.5031 27.1354 70.0031 27.75C69.5135 28.3646 69.2687 29.2135 69.2687 30.2969ZM68.05 30.2969C68.05 29.0156 68.3781 27.9479 69.0344 27.0938C69.701 26.2396 70.6333 25.8125 71.8312 25.8125C73.0187 25.8125 73.9458 26.2396 74.6125 27.0938C75.2792 27.9479 75.6125 29.0156 75.6125 30.2969C75.6125 30.8385 75.5396 31.3646 75.3937 31.875C75.2583 32.3854 75.0448 32.8646 74.7531 33.3125C74.4719 33.75 74.076 34.1042 73.5656 34.375C73.0656 34.6458 72.4875 34.7812 71.8312 34.7812C71.1854 34.7812 70.6073 34.651 70.0969 34.3906C69.5969 34.1198 69.201 33.7656 68.9094 33.3281C68.6281 32.8802 68.4146 32.401 68.2687 31.8906C68.1229 31.3802 68.05 30.849 68.05 30.2969ZM70.675 24.5312L72.4406 21.7969H74.0187L71.7375 24.5312H70.675ZM77.7 34.5V26.0938H78.8875V27.5312H78.9031C79.0281 27.1146 79.3354 26.724 79.825 26.3594C80.3146 25.9948 80.8979 25.8125 81.575 25.8125C82.3563 25.8125 82.9969 26.0573 83.4969 26.5469C84.0073 27.0365 84.2625 27.875 84.2625 29.0625V34.5H83.0438V29.2656C83.0438 27.6406 82.4604 26.8281 81.2938 26.8281C80.6479 26.8281 80.0906 27.0885 79.6219 27.6094C79.1531 28.1302 78.9188 28.7552 78.9188 29.4844V34.5H77.7Z" fill="black" fill-opacity="0.6"/>
</svg>
